<?xml version="1.0" encoding="utf-8" standalone="no"?>
<!DOCTYPE svg PUBLIC "-//W3C//DTD SVG 1.1//EN"
  "http://www.w3.org/Graphics/SVG/1.1/DTD/svg11.dtd">
<svg xmlns:xlink="http://www.w3.org/1999/xlink" width="902.671875pt" height="528.705978pt" viewBox="0 0 902.671875 528.705978" xmlns="http://www.w3.org/2000/svg" version="1.1">
 <metadata>
  <rdf:RDF xmlns:dc="http://purl.org/dc/elements/1.1/" xmlns:cc="http://creativecommons.org/ns#" xmlns:rdf="http://www.w3.org/1999/02/22-rdf-syntax-ns#">
   <cc:Work>
    <dc:type rdf:resource="http://purl.org/dc/dcmitype/StillImage"/>
    <dc:date>2023-07-07T14:12:02.423536</dc:date>
    <dc:format>image/svg+xml</dc:format>
    <dc:creator>
     <cc:Agent>
      <dc:title>Matplotlib v3.7.1, https://matplotlib.org/</dc:title>
     </cc:Agent>
    </dc:creator>
   </cc:Work>
  </rdf:RDF>
 </metadata>
 <defs>
  <style type="text/css">*{stroke-linejoin: round; stroke-linecap: butt}</style>
 </defs>
 <g id="figure_1">
  <g id="patch_1">
   <path d="M 0 528.705978 
L 902.671875 528.705978 
L 902.671875 0 
L 0 0 
z
" style="fill: #ffffff"/>
  </g>
  <g id="axes_1">
   <g id="patch_2">
    <path d="M 58.471875 462.958125 
L 438.92642 462.958125 
L 438.92642 22.318125 
L 58.471875 22.318125 
z
" style="fill: #ffffff"/>
   </g>
   <g id="patch_3">
    <path d="M 179.525594 462.958125 
L 179.525594 22.318125 
L 248.698347 22.318125 
L 248.698347 462.958125 
z
" clip-path="url(#pc26c94948d)" style="fill: #d3d3d3; stroke: #d3d3d3; stroke-linejoin: miter"/>
   </g>
   <g id="patch_4">
    <path d="M 317.872701 462.958125 
L 317.872701 22.318125 
L 387.045455 22.318125 
L 387.045455 462.958125 
z
" clip-path="url(#pc26c94948d)" style="fill: #d3d3d3; stroke: #d3d3d3; stroke-linejoin: miter"/>
   </g>
   <g id="matplotlib.axis_1">
    <g id="xtick_1">
     <g id="line2d_1">
      <defs>
       <path id="m9903a92d5a" d="M 0 0 
L 0 3.5 
" style="stroke: #000000; stroke-width: 0.8"/>
      </defs>
      <g>
       <use xlink:href="#m9903a92d5a" x="75.765263" y="462.958125" style="stroke: #000000; stroke-width: 0.8"/>
      </g>
     </g>
     <g id="text_1">
      <!-- 25.01. -->
      <g transform="translate(35.746453 501.435116) rotate(-30) scale(0.14 -0.14)">
       <defs>
        <path id="DejaVuSans-32" d="M 1228 531 
L 3431 531 
L 3431 0 
L 469 0 
L 469 531 
Q 828 903 1448 1529 
Q 2069 2156 2228 2338 
Q 2531 2678 2651 2914 
Q 2772 3150 2772 3378 
Q 2772 3750 2511 3984 
Q 2250 4219 1831 4219 
Q 1534 4219 1204 4116 
Q 875 4013 500 3803 
L 500 4441 
Q 881 4594 1212 4672 
Q 1544 4750 1819 4750 
Q 2544 4750 2975 4387 
Q 3406 4025 3406 3419 
Q 3406 3131 3298 2873 
Q 3191 2616 2906 2266 
Q 2828 2175 2409 1742 
Q 1991 1309 1228 531 
z
" transform="scale(0.015625)"/>
        <path id="DejaVuSans-35" d="M 691 4666 
L 3169 4666 
L 3169 4134 
L 1269 4134 
L 1269 2991 
Q 1406 3038 1543 3061 
Q 1681 3084 1819 3084 
Q 2600 3084 3056 2656 
Q 3513 2228 3513 1497 
Q 3513 744 3044 326 
Q 2575 -91 1722 -91 
Q 1428 -91 1123 -41 
Q 819 9 494 109 
L 494 744 
Q 775 591 1075 516 
Q 1375 441 1709 441 
Q 2250 441 2565 725 
Q 2881 1009 2881 1497 
Q 2881 1984 2565 2268 
Q 2250 2553 1709 2553 
Q 1456 2553 1204 2497 
Q 953 2441 691 2322 
L 691 4666 
z
" transform="scale(0.015625)"/>
        <path id="DejaVuSans-2e" d="M 684 794 
L 1344 794 
L 1344 0 
L 684 0 
L 684 794 
z
" transform="scale(0.015625)"/>
        <path id="DejaVuSans-30" d="M 2034 4250 
Q 1547 4250 1301 3770 
Q 1056 3291 1056 2328 
Q 1056 1369 1301 889 
Q 1547 409 2034 409 
Q 2525 409 2770 889 
Q 3016 1369 3016 2328 
Q 3016 3291 2770 3770 
Q 2525 4250 2034 4250 
z
M 2034 4750 
Q 2819 4750 3233 4129 
Q 3647 3509 3647 2328 
Q 3647 1150 3233 529 
Q 2819 -91 2034 -91 
Q 1250 -91 836 529 
Q 422 1150 422 2328 
Q 422 3509 836 4129 
Q 1250 4750 2034 4750 
z
" transform="scale(0.015625)"/>
        <path id="DejaVuSans-31" d="M 794 531 
L 1825 531 
L 1825 4091 
L 703 3866 
L 703 4441 
L 1819 4666 
L 2450 4666 
L 2450 531 
L 3481 531 
L 3481 0 
L 794 0 
L 794 531 
z
" transform="scale(0.015625)"/>
       </defs>
       <use xlink:href="#DejaVuSans-32"/>
       <use xlink:href="#DejaVuSans-35" x="63.623047"/>
       <use xlink:href="#DejaVuSans-2e" x="127.246094"/>
       <use xlink:href="#DejaVuSans-30" x="159.033203"/>
       <use xlink:href="#DejaVuSans-31" x="222.65625"/>
       <use xlink:href="#DejaVuSans-2e" x="286.279297"/>
      </g>
     </g>
    </g>
    <g id="xtick_2">
     <g id="line2d_2">
      <g>
       <use xlink:href="#m9903a92d5a" x="144.938817" y="462.958125" style="stroke: #000000; stroke-width: 0.8"/>
      </g>
     </g>
     <g id="text_2">
      <!-- 26.01. -->
      <g transform="translate(104.920007 501.435116) rotate(-30) scale(0.14 -0.14)">
       <defs>
        <path id="DejaVuSans-36" d="M 2113 2584 
Q 1688 2584 1439 2293 
Q 1191 2003 1191 1497 
Q 1191 994 1439 701 
Q 1688 409 2113 409 
Q 2538 409 2786 701 
Q 3034 994 3034 1497 
Q 3034 2003 2786 2293 
Q 2538 2584 2113 2584 
z
M 3366 4563 
L 3366 3988 
Q 3128 4100 2886 4159 
Q 2644 4219 2406 4219 
Q 1781 4219 1451 3797 
Q 1122 3375 1075 2522 
Q 1259 2794 1537 2939 
Q 1816 3084 2150 3084 
Q 2853 3084 3261 2657 
Q 3669 2231 3669 1497 
Q 3669 778 3244 343 
Q 2819 -91 2113 -91 
Q 1303 -91 875 529 
Q 447 1150 447 2328 
Q 447 3434 972 4092 
Q 1497 4750 2381 4750 
Q 2619 4750 2861 4703 
Q 3103 4656 3366 4563 
z
" transform="scale(0.015625)"/>
       </defs>
       <use xlink:href="#DejaVuSans-32"/>
       <use xlink:href="#DejaVuSans-36" x="63.623047"/>
       <use xlink:href="#DejaVuSans-2e" x="127.246094"/>
       <use xlink:href="#DejaVuSans-30" x="159.033203"/>
       <use xlink:href="#DejaVuSans-31" x="222.65625"/>
       <use xlink:href="#DejaVuSans-2e" x="286.279297"/>
      </g>
     </g>
    </g>
    <g id="xtick_3">
     <g id="line2d_3">
      <g>
       <use xlink:href="#m9903a92d5a" x="214.112371" y="462.958125" style="stroke: #000000; stroke-width: 0.8"/>
      </g>
     </g>
     <g id="text_3">
      <!-- 27.01. -->
      <g transform="translate(174.093561 501.435116) rotate(-30) scale(0.14 -0.14)">
       <defs>
        <path id="DejaVuSans-37" d="M 525 4666 
L 3525 4666 
L 3525 4397 
L 1831 0 
L 1172 0 
L 2766 4134 
L 525 4134 
L 525 4666 
z
" transform="scale(0.015625)"/>
       </defs>
       <use xlink:href="#DejaVuSans-32"/>
       <use xlink:href="#DejaVuSans-37" x="63.623047"/>
       <use xlink:href="#DejaVuSans-2e" x="127.246094"/>
       <use xlink:href="#DejaVuSans-30" x="159.033203"/>
       <use xlink:href="#DejaVuSans-31" x="222.65625"/>
       <use xlink:href="#DejaVuSans-2e" x="286.279297"/>
      </g>
     </g>
    </g>
    <g id="xtick_4">
     <g id="line2d_4">
      <g>
       <use xlink:href="#m9903a92d5a" x="283.285925" y="462.958125" style="stroke: #000000; stroke-width: 0.8"/>
      </g>
     </g>
     <g id="text_4">
      <!-- 28.01. -->
      <g transform="translate(243.267115 501.435116) rotate(-30) scale(0.14 -0.14)">
       <defs>
        <path id="DejaVuSans-38" d="M 2034 2216 
Q 1584 2216 1326 1975 
Q 1069 1734 1069 1313 
Q 1069 891 1326 650 
Q 1584 409 2034 409 
Q 2484 409 2743 651 
Q 3003 894 3003 1313 
Q 3003 1734 2745 1975 
Q 2488 2216 2034 2216 
z
M 1403 2484 
Q 997 2584 770 2862 
Q 544 3141 544 3541 
Q 544 4100 942 4425 
Q 1341 4750 2034 4750 
Q 2731 4750 3128 4425 
Q 3525 4100 3525 3541 
Q 3525 3141 3298 2862 
Q 3072 2584 2669 2484 
Q 3125 2378 3379 2068 
Q 3634 1759 3634 1313 
Q 3634 634 3220 271 
Q 2806 -91 2034 -91 
Q 1263 -91 848 271 
Q 434 634 434 1313 
Q 434 1759 690 2068 
Q 947 2378 1403 2484 
z
M 1172 3481 
Q 1172 3119 1398 2916 
Q 1625 2713 2034 2713 
Q 2441 2713 2670 2916 
Q 2900 3119 2900 3481 
Q 2900 3844 2670 4047 
Q 2441 4250 2034 4250 
Q 1625 4250 1398 4047 
Q 1172 3844 1172 3481 
z
" transform="scale(0.015625)"/>
       </defs>
       <use xlink:href="#DejaVuSans-32"/>
       <use xlink:href="#DejaVuSans-38" x="63.623047"/>
       <use xlink:href="#DejaVuSans-2e" x="127.246094"/>
       <use xlink:href="#DejaVuSans-30" x="159.033203"/>
       <use xlink:href="#DejaVuSans-31" x="222.65625"/>
       <use xlink:href="#DejaVuSans-2e" x="286.279297"/>
      </g>
     </g>
    </g>
    <g id="xtick_5">
     <g id="line2d_5">
      <g>
       <use xlink:href="#m9903a92d5a" x="352.459478" y="462.958125" style="stroke: #000000; stroke-width: 0.8"/>
      </g>
     </g>
     <g id="text_5">
      <!-- 29.01. -->
      <g transform="translate(312.440668 501.435116) rotate(-30) scale(0.14 -0.14)">
       <defs>
        <path id="DejaVuSans-39" d="M 703 97 
L 703 672 
Q 941 559 1184 500 
Q 1428 441 1663 441 
Q 2288 441 2617 861 
Q 2947 1281 2994 2138 
Q 2813 1869 2534 1725 
Q 2256 1581 1919 1581 
Q 1219 1581 811 2004 
Q 403 2428 403 3163 
Q 403 3881 828 4315 
Q 1253 4750 1959 4750 
Q 2769 4750 3195 4129 
Q 3622 3509 3622 2328 
Q 3622 1225 3098 567 
Q 2575 -91 1691 -91 
Q 1453 -91 1209 -44 
Q 966 3 703 97 
z
M 1959 2075 
Q 2384 2075 2632 2365 
Q 2881 2656 2881 3163 
Q 2881 3666 2632 3958 
Q 2384 4250 1959 4250 
Q 1534 4250 1286 3958 
Q 1038 3666 1038 3163 
Q 1038 2656 1286 2365 
Q 1534 2075 1959 2075 
z
" transform="scale(0.015625)"/>
       </defs>
       <use xlink:href="#DejaVuSans-32"/>
       <use xlink:href="#DejaVuSans-39" x="63.623047"/>
       <use xlink:href="#DejaVuSans-2e" x="127.246094"/>
       <use xlink:href="#DejaVuSans-30" x="159.033203"/>
       <use xlink:href="#DejaVuSans-31" x="222.65625"/>
       <use xlink:href="#DejaVuSans-2e" x="286.279297"/>
      </g>
     </g>
    </g>
    <g id="xtick_6">
     <g id="line2d_6">
      <g>
       <use xlink:href="#m9903a92d5a" x="421.633032" y="462.958125" style="stroke: #000000; stroke-width: 0.8"/>
      </g>
     </g>
     <g id="text_6">
      <!-- 30.01. -->
      <g transform="translate(381.614222 501.435116) rotate(-30) scale(0.14 -0.14)">
       <defs>
        <path id="DejaVuSans-33" d="M 2597 2516 
Q 3050 2419 3304 2112 
Q 3559 1806 3559 1356 
Q 3559 666 3084 287 
Q 2609 -91 1734 -91 
Q 1441 -91 1130 -33 
Q 819 25 488 141 
L 488 750 
Q 750 597 1062 519 
Q 1375 441 1716 441 
Q 2309 441 2620 675 
Q 2931 909 2931 1356 
Q 2931 1769 2642 2001 
Q 2353 2234 1838 2234 
L 1294 2234 
L 1294 2753 
L 1863 2753 
Q 2328 2753 2575 2939 
Q 2822 3125 2822 3475 
Q 2822 3834 2567 4026 
Q 2313 4219 1838 4219 
Q 1578 4219 1281 4162 
Q 984 4106 628 3988 
L 628 4550 
Q 988 4650 1302 4700 
Q 1616 4750 1894 4750 
Q 2613 4750 3031 4423 
Q 3450 4097 3450 3541 
Q 3450 3153 3228 2886 
Q 3006 2619 2597 2516 
z
" transform="scale(0.015625)"/>
       </defs>
       <use xlink:href="#DejaVuSans-33"/>
       <use xlink:href="#DejaVuSans-30" x="63.623047"/>
       <use xlink:href="#DejaVuSans-2e" x="127.246094"/>
       <use xlink:href="#DejaVuSans-30" x="159.033203"/>
       <use xlink:href="#DejaVuSans-31" x="222.65625"/>
       <use xlink:href="#DejaVuSans-2e" x="286.279297"/>
      </g>
     </g>
    </g>
    <g id="text_7">
     <!-- Zeit -->
     <g transform="translate(234.908054 518.594415) scale(0.14 -0.14)">
      <defs>
       <path id="DejaVuSans-5a" d="M 359 4666 
L 4025 4666 
L 4025 4184 
L 1075 531 
L 4097 531 
L 4097 0 
L 288 0 
L 288 481 
L 3238 4134 
L 359 4134 
L 359 4666 
z
" transform="scale(0.015625)"/>
       <path id="DejaVuSans-65" d="M 3597 1894 
L 3597 1613 
L 953 1613 
Q 991 1019 1311 708 
Q 1631 397 2203 397 
Q 2534 397 2845 478 
Q 3156 559 3463 722 
L 3463 178 
Q 3153 47 2828 -22 
Q 2503 -91 2169 -91 
Q 1331 -91 842 396 
Q 353 884 353 1716 
Q 353 2575 817 3079 
Q 1281 3584 2069 3584 
Q 2775 3584 3186 3129 
Q 3597 2675 3597 1894 
z
M 3022 2063 
Q 3016 2534 2758 2815 
Q 2500 3097 2075 3097 
Q 1594 3097 1305 2825 
Q 1016 2553 972 2059 
L 3022 2063 
z
" transform="scale(0.015625)"/>
       <path id="DejaVuSans-69" d="M 603 3500 
L 1178 3500 
L 1178 0 
L 603 0 
L 603 3500 
z
M 603 4863 
L 1178 4863 
L 1178 4134 
L 603 4134 
L 603 4863 
z
" transform="scale(0.015625)"/>
       <path id="DejaVuSans-74" d="M 1172 4494 
L 1172 3500 
L 2356 3500 
L 2356 3053 
L 1172 3053 
L 1172 1153 
Q 1172 725 1289 603 
Q 1406 481 1766 481 
L 2356 481 
L 2356 0 
L 1766 0 
Q 1100 0 847 248 
Q 594 497 594 1153 
L 594 3053 
L 172 3053 
L 172 3500 
L 594 3500 
L 594 4494 
L 1172 4494 
z
" transform="scale(0.015625)"/>
      </defs>
      <use xlink:href="#DejaVuSans-5a"/>
      <use xlink:href="#DejaVuSans-65" x="68.505859"/>
      <use xlink:href="#DejaVuSans-69" x="130.029297"/>
      <use xlink:href="#DejaVuSans-74" x="157.8125"/>
     </g>
    </g>
   </g>
   <g id="matplotlib.axis_2">
    <g id="ytick_1">
     <g id="line2d_7">
      <defs>
       <path id="m87d15ac225" d="M 0 0 
L -3.5 0 
" style="stroke: #000000; stroke-width: 0.8"/>
      </defs>
      <g>
       <use xlink:href="#m87d15ac225" x="58.471875" y="422.899943" style="stroke: #000000; stroke-width: 0.8"/>
      </g>
     </g>
     <g id="text_8">
      <!-- 300 -->
      <g transform="translate(24.749375 428.218849) scale(0.14 -0.14)">
       <use xlink:href="#DejaVuSans-33"/>
       <use xlink:href="#DejaVuSans-30" x="63.623047"/>
       <use xlink:href="#DejaVuSans-30" x="127.246094"/>
      </g>
     </g>
    </g>
    <g id="ytick_2">
     <g id="line2d_8">
      <g>
       <use xlink:href="#m87d15ac225" x="58.471875" y="342.78358" style="stroke: #000000; stroke-width: 0.8"/>
      </g>
     </g>
     <g id="text_9">
      <!-- 400 -->
      <g transform="translate(24.749375 348.102486) scale(0.14 -0.14)">
       <defs>
        <path id="DejaVuSans-34" d="M 2419 4116 
L 825 1625 
L 2419 1625 
L 2419 4116 
z
M 2253 4666 
L 3047 4666 
L 3047 1625 
L 3713 1625 
L 3713 1100 
L 3047 1100 
L 3047 0 
L 2419 0 
L 2419 1100 
L 313 1100 
L 313 1709 
L 2253 4666 
z
" transform="scale(0.015625)"/>
       </defs>
       <use xlink:href="#DejaVuSans-34"/>
       <use xlink:href="#DejaVuSans-30" x="63.623047"/>
       <use xlink:href="#DejaVuSans-30" x="127.246094"/>
      </g>
     </g>
    </g>
    <g id="ytick_3">
     <g id="line2d_9">
      <g>
       <use xlink:href="#m87d15ac225" x="58.471875" y="262.667216" style="stroke: #000000; stroke-width: 0.8"/>
      </g>
     </g>
     <g id="text_10">
      <!-- 500 -->
      <g transform="translate(24.749375 267.986122) scale(0.14 -0.14)">
       <use xlink:href="#DejaVuSans-35"/>
       <use xlink:href="#DejaVuSans-30" x="63.623047"/>
       <use xlink:href="#DejaVuSans-30" x="127.246094"/>
      </g>
     </g>
    </g>
    <g id="ytick_4">
     <g id="line2d_10">
      <g>
       <use xlink:href="#m87d15ac225" x="58.471875" y="182.550852" style="stroke: #000000; stroke-width: 0.8"/>
      </g>
     </g>
     <g id="text_11">
      <!-- 600 -->
      <g transform="translate(24.749375 187.869759) scale(0.14 -0.14)">
       <use xlink:href="#DejaVuSans-36"/>
       <use xlink:href="#DejaVuSans-30" x="63.623047"/>
       <use xlink:href="#DejaVuSans-30" x="127.246094"/>
      </g>
     </g>
    </g>
    <g id="ytick_5">
     <g id="line2d_11">
      <g>
       <use xlink:href="#m87d15ac225" x="58.471875" y="102.434489" style="stroke: #000000; stroke-width: 0.8"/>
      </g>
     </g>
     <g id="text_12">
      <!-- 700 -->
      <g transform="translate(24.749375 107.753395) scale(0.14 -0.14)">
       <use xlink:href="#DejaVuSans-37"/>
       <use xlink:href="#DejaVuSans-30" x="63.623047"/>
       <use xlink:href="#DejaVuSans-30" x="127.246094"/>
      </g>
     </g>
    </g>
    <g id="ytick_6">
     <g id="line2d_12">
      <g>
       <use xlink:href="#m87d15ac225" x="58.471875" y="22.318125" style="stroke: #000000; stroke-width: 0.8"/>
      </g>
     </g>
     <g id="text_13">
      <!-- 800 -->
      <g transform="translate(24.749375 27.637031) scale(0.14 -0.14)">
       <use xlink:href="#DejaVuSans-38"/>
       <use xlink:href="#DejaVuSans-30" x="63.623047"/>
       <use xlink:href="#DejaVuSans-30" x="127.246094"/>
      </g>
     </g>
    </g>
    <g id="text_14">
     <!-- Kohlebedarf in t -->
     <g transform="translate(17.837813 298.250937) rotate(-90) scale(0.14 -0.14)">
      <defs>
       <path id="DejaVuSans-4b" d="M 628 4666 
L 1259 4666 
L 1259 2694 
L 3353 4666 
L 4166 4666 
L 1850 2491 
L 4331 0 
L 3500 0 
L 1259 2247 
L 1259 0 
L 628 0 
L 628 4666 
z
" transform="scale(0.015625)"/>
       <path id="DejaVuSans-6f" d="M 1959 3097 
Q 1497 3097 1228 2736 
Q 959 2375 959 1747 
Q 959 1119 1226 758 
Q 1494 397 1959 397 
Q 2419 397 2687 759 
Q 2956 1122 2956 1747 
Q 2956 2369 2687 2733 
Q 2419 3097 1959 3097 
z
M 1959 3584 
Q 2709 3584 3137 3096 
Q 3566 2609 3566 1747 
Q 3566 888 3137 398 
Q 2709 -91 1959 -91 
Q 1206 -91 779 398 
Q 353 888 353 1747 
Q 353 2609 779 3096 
Q 1206 3584 1959 3584 
z
" transform="scale(0.015625)"/>
       <path id="DejaVuSans-68" d="M 3513 2113 
L 3513 0 
L 2938 0 
L 2938 2094 
Q 2938 2591 2744 2837 
Q 2550 3084 2163 3084 
Q 1697 3084 1428 2787 
Q 1159 2491 1159 1978 
L 1159 0 
L 581 0 
L 581 4863 
L 1159 4863 
L 1159 2956 
Q 1366 3272 1645 3428 
Q 1925 3584 2291 3584 
Q 2894 3584 3203 3211 
Q 3513 2838 3513 2113 
z
" transform="scale(0.015625)"/>
       <path id="DejaVuSans-6c" d="M 603 4863 
L 1178 4863 
L 1178 0 
L 603 0 
L 603 4863 
z
" transform="scale(0.015625)"/>
       <path id="DejaVuSans-62" d="M 3116 1747 
Q 3116 2381 2855 2742 
Q 2594 3103 2138 3103 
Q 1681 3103 1420 2742 
Q 1159 2381 1159 1747 
Q 1159 1113 1420 752 
Q 1681 391 2138 391 
Q 2594 391 2855 752 
Q 3116 1113 3116 1747 
z
M 1159 2969 
Q 1341 3281 1617 3432 
Q 1894 3584 2278 3584 
Q 2916 3584 3314 3078 
Q 3713 2572 3713 1747 
Q 3713 922 3314 415 
Q 2916 -91 2278 -91 
Q 1894 -91 1617 61 
Q 1341 213 1159 525 
L 1159 0 
L 581 0 
L 581 4863 
L 1159 4863 
L 1159 2969 
z
" transform="scale(0.015625)"/>
       <path id="DejaVuSans-64" d="M 2906 2969 
L 2906 4863 
L 3481 4863 
L 3481 0 
L 2906 0 
L 2906 525 
Q 2725 213 2448 61 
Q 2172 -91 1784 -91 
Q 1150 -91 751 415 
Q 353 922 353 1747 
Q 353 2572 751 3078 
Q 1150 3584 1784 3584 
Q 2172 3584 2448 3432 
Q 2725 3281 2906 2969 
z
M 947 1747 
Q 947 1113 1208 752 
Q 1469 391 1925 391 
Q 2381 391 2643 752 
Q 2906 1113 2906 1747 
Q 2906 2381 2643 2742 
Q 2381 3103 1925 3103 
Q 1469 3103 1208 2742 
Q 947 2381 947 1747 
z
" transform="scale(0.015625)"/>
       <path id="DejaVuSans-61" d="M 2194 1759 
Q 1497 1759 1228 1600 
Q 959 1441 959 1056 
Q 959 750 1161 570 
Q 1363 391 1709 391 
Q 2188 391 2477 730 
Q 2766 1069 2766 1631 
L 2766 1759 
L 2194 1759 
z
M 3341 1997 
L 3341 0 
L 2766 0 
L 2766 531 
Q 2569 213 2275 61 
Q 1981 -91 1556 -91 
Q 1019 -91 701 211 
Q 384 513 384 1019 
Q 384 1609 779 1909 
Q 1175 2209 1959 2209 
L 2766 2209 
L 2766 2266 
Q 2766 2663 2505 2880 
Q 2244 3097 1772 3097 
Q 1472 3097 1187 3025 
Q 903 2953 641 2809 
L 641 3341 
Q 956 3463 1253 3523 
Q 1550 3584 1831 3584 
Q 2591 3584 2966 3190 
Q 3341 2797 3341 1997 
z
" transform="scale(0.015625)"/>
       <path id="DejaVuSans-72" d="M 2631 2963 
Q 2534 3019 2420 3045 
Q 2306 3072 2169 3072 
Q 1681 3072 1420 2755 
Q 1159 2438 1159 1844 
L 1159 0 
L 581 0 
L 581 3500 
L 1159 3500 
L 1159 2956 
Q 1341 3275 1631 3429 
Q 1922 3584 2338 3584 
Q 2397 3584 2469 3576 
Q 2541 3569 2628 3553 
L 2631 2963 
z
" transform="scale(0.015625)"/>
       <path id="DejaVuSans-66" d="M 2375 4863 
L 2375 4384 
L 1825 4384 
Q 1516 4384 1395 4259 
Q 1275 4134 1275 3809 
L 1275 3500 
L 2222 3500 
L 2222 3053 
L 1275 3053 
L 1275 0 
L 697 0 
L 697 3053 
L 147 3053 
L 147 3500 
L 697 3500 
L 697 3744 
Q 697 4328 969 4595 
Q 1241 4863 1831 4863 
L 2375 4863 
z
" transform="scale(0.015625)"/>
       <path id="DejaVuSans-20" transform="scale(0.015625)"/>
       <path id="DejaVuSans-6e" d="M 3513 2113 
L 3513 0 
L 2938 0 
L 2938 2094 
Q 2938 2591 2744 2837 
Q 2550 3084 2163 3084 
Q 1697 3084 1428 2787 
Q 1159 2491 1159 1978 
L 1159 0 
L 581 0 
L 581 3500 
L 1159 3500 
L 1159 2956 
Q 1366 3272 1645 3428 
Q 1925 3584 2291 3584 
Q 2894 3584 3203 3211 
Q 3513 2838 3513 2113 
z
" transform="scale(0.015625)"/>
      </defs>
      <use xlink:href="#DejaVuSans-4b"/>
      <use xlink:href="#DejaVuSans-6f" x="60.576172"/>
      <use xlink:href="#DejaVuSans-68" x="121.757812"/>
      <use xlink:href="#DejaVuSans-6c" x="185.136719"/>
      <use xlink:href="#DejaVuSans-65" x="212.919922"/>
      <use xlink:href="#DejaVuSans-62" x="274.443359"/>
      <use xlink:href="#DejaVuSans-65" x="337.919922"/>
      <use xlink:href="#DejaVuSans-64" x="399.443359"/>
      <use xlink:href="#DejaVuSans-61" x="462.919922"/>
      <use xlink:href="#DejaVuSans-72" x="524.199219"/>
      <use xlink:href="#DejaVuSans-66" x="565.3125"/>
      <use xlink:href="#DejaVuSans-20" x="600.517578"/>
      <use xlink:href="#DejaVuSans-69" x="632.304688"/>
      <use xlink:href="#DejaVuSans-6e" x="660.087891"/>
      <use xlink:href="#DejaVuSans-20" x="723.466797"/>
      <use xlink:href="#DejaVuSans-74" x="755.253906"/>
     </g>
    </g>
   </g>
   <g id="line2d_13">
    <path d="M 75.765263 110.192857 
L 77.206379 132.514482 
L 77.926937 141.183074 
L 78.647495 175.857442 
L 79.368053 181.564266 
L 80.088611 179.397118 
L 80.809168 179.975024 
L 81.529726 181.203074 
L 82.250284 181.636504 
L 82.970842 181.419789 
L 83.6914 182.21441 
L 84.411958 184.237082 
L 85.132515 183.009031 
L 85.853073 180.986359 
L 86.573631 181.419789 
L 87.294189 182.358887 
L 88.014747 182.936793 
L 88.735305 181.564266 
L 89.455863 176.218634 
L 90.17642 165.744085 
L 90.896978 164.154843 
L 91.617536 164.082605 
L 92.338094 154.619392 
L 93.058652 106.147514 
L 93.77921 95.167298 
L 94.499768 96.106395 
L 95.220325 98.129067 
L 95.940883 91.194193 
L 96.661441 81.875456 
L 97.381999 81.803218 
L 98.102557 82.164409 
L 98.823115 75.807442 
L 99.543673 75.301774 
L 100.26423 81.29755 
L 100.984788 82.381124 
L 101.705346 80.936359 
L 102.425904 86.281991 
L 103.146462 82.814554 
L 103.86702 83.970366 
L 104.587577 76.674301 
L 105.308135 81.080835 
L 106.028693 78.696973 
L 106.749251 76.818778 
L 107.469809 75.951918 
L 108.190367 76.168633 
L 108.910925 74.001485 
L 109.631482 74.001485 
L 110.35204 73.206864 
L 111.072598 73.640294 
L 111.793156 73.640294 
L 112.513714 81.008597 
L 113.234272 74.001485 
L 113.95483 79.491593 
L 114.675387 75.012821 
L 115.395945 74.290438 
L 116.116503 75.229536 
L 116.837061 74.434915 
L 117.557619 75.951918 
L 118.278177 75.085059 
L 118.998735 77.757875 
L 119.719292 77.179969 
L 120.43985 76.024157 
L 121.160408 77.035492 
L 121.880966 77.685637 
L 122.601524 77.035492 
L 123.322082 77.179969 
L 124.042639 77.468922 
L 124.763197 80.141738 
L 125.483755 78.335781 
L 126.204313 77.179969 
L 126.924871 77.830113 
L 127.645429 79.852785 
L 128.365987 77.757875 
L 129.086544 77.685637 
L 129.807102 79.058164 
L 130.52766 79.20264 
L 131.248218 81.803218 
L 131.968776 81.369788 
L 133.409892 75.518489 
L 134.130449 77.54116 
L 134.851007 77.107731 
L 135.571565 76.168633 
L 136.292123 74.001485 
L 137.733239 76.818778 
L 138.453796 77.468922 
L 139.174354 73.640294 
L 139.894912 77.252207 
L 140.61547 78.119066 
L 141.336028 79.347117 
L 142.056586 76.31311 
L 142.777144 78.046828 
L 143.497701 77.252207 
L 144.218259 78.263543 
L 144.938817 66.922135 
L 145.659375 69.522713 
L 146.379933 68.439139 
L 147.100491 67.933471 
L 147.821049 66.560944 
L 148.541606 68.728092 
L 149.262164 67.716756 
L 149.982722 68.150185 
L 150.70328 65.04394 
L 151.423838 66.416467 
L 152.144396 65.838561 
L 152.864954 66.560944 
L 153.585511 65.694084 
L 154.306069 66.271991 
L 155.026627 64.104842 
L 155.747185 65.47737 
L 156.467743 64.754987 
L 157.188301 65.983037 
L 157.908858 64.321557 
L 158.629416 65.04394 
L 159.349974 65.188416 
L 160.79109 61.865456 
L 161.511648 62.515601 
L 162.232206 64.61051 
L 162.952763 63.021268 
L 163.673321 63.310222 
L 164.393879 66.777658 
L 165.114437 66.488705 
L 165.834995 64.899463 
L 166.555553 65.983037 
L 167.276111 65.260655 
L 167.996668 62.298886 
L 168.717226 61.143074 
L 169.437784 60.348453 
L 170.158342 61.648741 
L 170.8789 60.059499 
L 171.599458 59.770546 
L 172.320015 58.542496 
L 173.040573 58.253543 
L 173.761131 58.398019 
L 174.481689 59.553832 
L 175.202247 58.109066 
L 175.922805 59.481593 
L 176.643363 59.481593 
L 177.36392 60.131738 
L 178.084478 61.937694 
L 178.805036 62.226648 
L 179.525594 60.926359 
L 180.246152 62.443362 
L 180.96671 62.443362 
L 181.687268 61.28755 
L 182.407825 59.481593 
L 183.128383 60.85412 
L 183.848941 59.19264 
L 184.569499 60.492929 
L 185.290057 62.660077 
L 186.731173 63.815889 
L 187.45173 63.743651 
L 188.172288 64.538272 
L 188.892846 64.393796 
L 189.613404 64.61051 
L 191.05452 69.450474 
L 191.775077 71.039716 
L 192.495635 70.750763 
L 193.936751 71.834337 
L 194.657309 70.02838 
L 196.098425 70.678525 
L 196.818982 71.978814 
L 197.53954 73.712532 
L 198.980656 71.039716 
L 199.701214 70.534048 
L 200.421772 69.522713 
L 201.14233 70.606287 
L 201.862887 69.089283 
L 202.583445 66.633182 
L 203.304003 69.667189 
L 204.024561 70.100619 
L 204.745119 69.161521 
L 205.465677 66.127514 
L 206.186235 65.694084 
L 206.906792 65.838561 
L 207.62735 67.13885 
L 208.347908 64.754987 
L 209.068466 67.066611 
L 209.789024 65.549608 
L 210.509582 67.788994 
L 211.230139 68.583615 
L 211.950697 70.46181 
L 212.671255 70.606287 
L 213.391813 71.400908 
L 214.112371 67.788994 
L 214.832929 67.500041 
L 216.274044 70.02838 
L 216.994602 66.344229 
L 217.71516 66.271991 
L 218.435718 67.211088 
L 219.156276 67.788994 
L 219.876834 64.104842 
L 220.597392 66.416467 
L 221.317949 67.716756 
L 222.038507 66.633182 
L 222.759065 66.271991 
L 223.479623 66.344229 
L 224.200181 64.61051 
L 224.920739 65.766323 
L 225.641296 65.260655 
L 226.361854 63.671413 
L 227.80297 65.694084 
L 228.523528 67.644518 
L 229.244086 66.055276 
L 229.964644 66.777658 
L 230.685201 66.560944 
L 231.405759 67.572279 
L 232.126317 66.70542 
L 232.846875 66.777658 
L 233.567433 65.332893 
L 234.287991 68.583615 
L 235.008549 67.066611 
L 235.729106 70.02838 
L 236.449664 67.283326 
L 237.170222 65.766323 
L 237.89078 66.416467 
L 238.611338 67.716756 
L 239.331896 65.910799 
L 240.052454 67.644518 
L 240.773011 65.910799 
L 241.493569 65.983037 
L 242.934685 63.960366 
L 243.655243 66.560944 
L 244.375801 64.177081 
L 245.096358 65.766323 
L 245.816916 65.694084 
L 246.537474 65.260655 
L 247.258032 65.405131 
L 247.97859 65.838561 
L 248.699148 67.933471 
L 249.419706 67.283326 
L 250.140263 69.089283 
L 250.860821 67.788994 
L 251.581379 65.47737 
L 252.301937 64.971702 
L 253.022495 67.066611 
L 253.743053 80.213976 
L 254.463611 85.559608 
L 255.184168 102.607839 
L 255.904726 110.192857 
L 256.625284 111.34867 
L 257.345842 110.91524 
L 258.0664 111.276431 
L 258.786958 110.337334 
L 259.507515 112.360005 
L 260.228073 112.648958 
L 260.948631 111.782099 
L 261.669189 115.610727 
L 262.389747 116.044157 
L 263.110305 116.76654 
L 263.830863 115.827442 
L 264.55142 115.682966 
L 265.271978 116.983254 
L 266.713094 114.021485 
L 267.433652 115.177298 
L 268.15421 115.682966 
L 268.874768 114.527153 
L 269.595325 115.682966 
L 270.315883 115.105059 
L 271.036441 114.165962 
L 271.756999 109.470475 
L 272.477557 111.565384 
L 273.198115 109.470475 
L 273.918673 107.808994 
L 274.63923 109.037045 
L 275.359788 111.998814 
L 276.080346 112.215529 
L 276.800904 112.57672 
L 277.521462 110.120619 
L 278.24202 112.793435 
L 278.962577 111.059716 
L 279.683135 112.937911 
L 280.403693 112.14329 
L 281.124251 113.732532 
L 281.844809 113.515818 
L 282.565367 114.454915 
L 283.285925 112.432244 
L 284.006482 114.67163 
L 284.72704 112.937911 
L 285.447598 113.877009 
L 286.168156 111.709861 
L 286.888714 111.276431 
L 287.609272 111.854337 
L 288.32983 111.782099 
L 289.050387 109.181521 
L 289.770945 110.626287 
L 290.491503 108.964807 
L 291.212061 109.903904 
L 291.932619 109.614951 
L 292.653177 109.903904 
L 294.094292 108.675854 
L 294.81485 106.942135 
L 295.535408 109.109283 
L 296.255966 109.325998 
L 296.976524 108.892568 
L 297.697082 109.759428 
L 298.417639 108.675854 
L 299.858755 110.265095 
L 300.579313 110.337334 
L 301.299871 107.59228 
L 302.020429 108.459139 
L 302.740987 107.303327 
L 303.461544 110.265095 
L 304.182102 108.964807 
L 304.90266 112.287767 
L 305.623218 109.25376 
L 306.343776 112.215529 
L 307.064334 110.192857 
L 307.784892 109.25376 
L 308.505449 108.603615 
L 309.226007 110.048381 
L 309.946565 108.459139 
L 310.667123 109.109283 
L 311.387681 108.314662 
L 312.108239 108.025709 
L 312.828796 107.59228 
L 313.549354 107.303327 
L 314.269912 107.808994 
L 314.99047 106.653182 
L 315.711028 107.664518 
L 316.431586 107.736756 
L 317.152144 107.231088 
L 317.872701 105.641846 
L 318.593259 107.086612 
L 319.313817 105.425132 
L 320.034375 106.869897 
L 320.754933 103.474698 
L 321.475491 104.197081 
L 322.196049 103.40246 
L 322.916606 103.474698 
L 323.637164 104.702749 
L 324.357722 105.280655 
L 325.798838 110.626287 
L 327.239954 103.257984 
L 327.960511 103.619175 
L 328.681069 104.702749 
L 329.401627 108.314662 
L 330.122185 105.280655 
L 330.842743 106.003038 
L 331.563301 106.364229 
L 332.283858 106.508706 
L 333.004416 106.869897 
L 333.724974 105.858561 
L 334.445532 104.630511 
L 335.16609 107.520041 
L 335.886648 105.49737 
L 336.607206 106.219753 
L 337.327763 104.341558 
L 338.048321 105.425132 
L 338.768879 104.269319 
L 339.489437 106.436467 
L 340.209995 107.736756 
L 340.930553 115.755204 
L 341.651111 118.066828 
L 342.371668 117.127731 
L 343.092226 117.488922 
L 343.812784 122.690078 
L 344.533342 124.134843 
L 345.2539 125.290655 
L 345.974458 125.290655 
L 346.695015 125.796323 
L 347.415573 135.259536 
L 348.136131 135.259536 
L 348.856689 134.826106 
L 349.577247 141.688742 
L 350.297805 172.462244 
L 351.018363 194.061486 
L 351.73892 211.904338 
L 352.459478 275.979681 
L 353.180036 287.826757 
L 353.900594 290.788526 
L 354.621152 299.746071 
L 355.34171 328.063472 
L 356.782825 342.294411 
L 357.503383 342.727841 
L 358.944499 348.57914 
L 359.665057 348.651379 
L 360.385615 347.856758 
L 361.82673 349.229285 
L 362.547288 348.145711 
L 363.267846 348.001234 
L 363.988404 344.750512 
L 364.708962 346.123039 
L 365.42952 345.039465 
L 366.150077 343.16127 
L 366.870635 341.716505 
L 367.591193 342.077696 
L 368.311751 341.788743 
L 369.032309 335.287299 
L 369.752867 321.562028 
L 370.473425 320.984122 
L 371.193982 325.390656 
L 371.91454 326.185277 
L 372.635098 315.421776 
L 374.076214 309.498238 
L 374.796772 307.186613 
L 375.51733 275.835205 
L 376.237887 269.76719 
L 376.958445 268.322425 
L 377.679003 267.527804 
L 378.399561 257.920114 
L 379.120119 257.486685 
L 379.840677 257.342208 
L 380.561235 264.710512 
L 381.281792 301.118599 
L 382.00235 300.540692 
L 382.722908 302.491126 
L 383.443466 303.863653 
L 384.164024 313.615819 
L 384.884582 319.900548 
L 385.605139 319.467119 
L 386.325697 322.139934 
L 387.046255 341.644267 
L 387.766813 345.68961 
L 389.207929 350.023906 
L 389.928487 355.441776 
L 390.649044 357.247732 
L 391.369602 360.209501 
L 392.09016 361.365314 
L 392.810718 361.148599 
L 393.531276 365.69961 
L 394.251834 362.376649 
L 394.972392 362.954556 
L 395.692949 368.083473 
L 396.413507 368.733617 
L 397.134065 365.26618 
L 397.854623 363.315747 
L 398.575181 347.856758 
L 399.295739 344.244844 
L 400.016296 345.978563 
L 400.736854 340.343978 
L 401.457412 333.264628 
L 402.17797 333.625819 
L 402.898528 337.021018 
L 403.619086 336.876541 
L 404.339644 341.210837 
L 405.060201 343.305747 
L 405.780759 352.407769 
L 406.501317 354.647155 
L 407.221875 360.642931 
L 407.942433 372.923437 
L 408.662991 374.729393 
L 409.383549 392.283292 
L 410.824664 409.476 
L 411.545222 414.89387 
L 412.26578 411.932101 
L 412.986338 397.339971 
L 413.706896 414.315964 
L 414.427454 414.315964 
L 415.148011 416.194159 
L 415.868569 407.597805 
L 417.309685 403.191271 
L 418.030243 399.507119 
L 418.750801 393.800296 
L 419.471358 394.378202 
L 420.191916 393.22239 
L 420.912474 391.56091 
L 421.633032 390.766289 
L 421.633032 390.766289 
" clip-path="url(#pc26c94948d)" style="fill: none; stroke: #000000; stroke-width: 1.5; stroke-linecap: square"/>
   </g>
   <g id="patch_5">
    <path d="M 58.471875 462.958125 
L 58.471875 22.318125 
" style="fill: none; stroke: #000000; stroke-width: 0.8; stroke-linejoin: miter; stroke-linecap: square"/>
   </g>
   <g id="patch_6">
    <path d="M 438.92642 462.958125 
L 438.92642 22.318125 
" style="fill: none; stroke: #000000; stroke-width: 0.8; stroke-linejoin: miter; stroke-linecap: square"/>
   </g>
   <g id="patch_7">
    <path d="M 58.471875 462.958125 
L 438.92642 462.958125 
" style="fill: none; stroke: #000000; stroke-width: 0.8; stroke-linejoin: miter; stroke-linecap: square"/>
   </g>
   <g id="patch_8">
    <path d="M 58.471875 22.318125 
L 438.92642 22.318125 
" style="fill: none; stroke: #000000; stroke-width: 0.8; stroke-linejoin: miter; stroke-linecap: square"/>
   </g>
   <g id="text_15">
    <!-- A -->
    <g transform="translate(214.112371 422.899943) scale(0.2 -0.2)">
     <defs>
      <path id="DejaVuSans-41" d="M 2188 4044 
L 1331 1722 
L 3047 1722 
L 2188 4044 
z
M 1831 4666 
L 2547 4666 
L 4325 0 
L 3669 0 
L 3244 1197 
L 1141 1197 
L 716 0 
L 50 0 
L 1831 4666 
z
" transform="scale(0.015625)"/>
     </defs>
     <use xlink:href="#DejaVuSans-41"/>
    </g>
   </g>
   <g id="text_16">
    <!-- B -->
    <g transform="translate(352.459478 422.899943) scale(0.2 -0.2)">
     <defs>
      <path id="DejaVuSans-42" d="M 1259 2228 
L 1259 519 
L 2272 519 
Q 2781 519 3026 730 
Q 3272 941 3272 1375 
Q 3272 1813 3026 2020 
Q 2781 2228 2272 2228 
L 1259 2228 
z
M 1259 4147 
L 1259 2741 
L 2194 2741 
Q 2656 2741 2882 2914 
Q 3109 3088 3109 3444 
Q 3109 3797 2882 3972 
Q 2656 4147 2194 4147 
L 1259 4147 
z
M 628 4666 
L 2241 4666 
Q 2963 4666 3353 4366 
Q 3744 4066 3744 3513 
Q 3744 3084 3544 2831 
Q 3344 2578 2956 2516 
Q 3422 2416 3680 2098 
Q 3938 1781 3938 1306 
Q 3938 681 3513 340 
Q 3088 0 2303 0 
L 628 0 
L 628 4666 
z
" transform="scale(0.015625)"/>
     </defs>
     <use xlink:href="#DejaVuSans-42"/>
    </g>
   </g>
   <g id="text_17">
    <!-- a -->
    <g transform="translate(75.765263 422.899943) scale(0.2 -0.2)">
     <use xlink:href="#DejaVuSans-61"/>
    </g>
   </g>
  </g>
  <g id="axes_2">
   <g id="patch_9">
    <path d="M 515.01733 222.609034 
L 895.471875 222.609034 
L 895.471875 22.318125 
L 515.01733 22.318125 
z
" style="fill: #ffffff"/>
   </g>
   <g id="matplotlib.axis_3">
    <g id="xtick_7">
     <g id="line2d_14">
      <g>
       <use xlink:href="#m9903a92d5a" x="532.310718" y="222.609034" style="stroke: #000000; stroke-width: 0.8"/>
      </g>
     </g>
    </g>
    <g id="xtick_8">
     <g id="line2d_15">
      <g>
       <use xlink:href="#m9903a92d5a" x="590.562132" y="222.609034" style="stroke: #000000; stroke-width: 0.8"/>
      </g>
     </g>
    </g>
    <g id="xtick_9">
     <g id="line2d_16">
      <g>
       <use xlink:href="#m9903a92d5a" x="648.813545" y="222.609034" style="stroke: #000000; stroke-width: 0.8"/>
      </g>
     </g>
    </g>
    <g id="xtick_10">
     <g id="line2d_17">
      <g>
       <use xlink:href="#m9903a92d5a" x="707.064959" y="222.609034" style="stroke: #000000; stroke-width: 0.8"/>
      </g>
     </g>
    </g>
    <g id="xtick_11">
     <g id="line2d_18">
      <g>
       <use xlink:href="#m9903a92d5a" x="765.316373" y="222.609034" style="stroke: #000000; stroke-width: 0.8"/>
      </g>
     </g>
    </g>
    <g id="xtick_12">
     <g id="line2d_19">
      <g>
       <use xlink:href="#m9903a92d5a" x="823.567786" y="222.609034" style="stroke: #000000; stroke-width: 0.8"/>
      </g>
     </g>
    </g>
    <g id="xtick_13">
     <g id="line2d_20">
      <g>
       <use xlink:href="#m9903a92d5a" x="881.8192" y="222.609034" style="stroke: #000000; stroke-width: 0.8"/>
      </g>
     </g>
    </g>
   </g>
   <g id="matplotlib.axis_4">
    <g id="ytick_7">
     <g id="line2d_21">
      <g>
       <use xlink:href="#m87d15ac225" x="515.01733" y="204.40077" style="stroke: #000000; stroke-width: 0.8"/>
      </g>
     </g>
     <g id="text_18">
      <!-- 300 -->
      <g transform="translate(481.29483 209.719676) scale(0.14 -0.14)">
       <use xlink:href="#DejaVuSans-33"/>
       <use xlink:href="#DejaVuSans-30" x="63.623047"/>
       <use xlink:href="#DejaVuSans-30" x="127.246094"/>
      </g>
     </g>
    </g>
    <g id="ytick_8">
     <g id="line2d_22">
      <g>
       <use xlink:href="#m87d15ac225" x="515.01733" y="167.984241" style="stroke: #000000; stroke-width: 0.8"/>
      </g>
     </g>
     <g id="text_19">
      <!-- 400 -->
      <g transform="translate(481.29483 173.303147) scale(0.14 -0.14)">
       <use xlink:href="#DejaVuSans-34"/>
       <use xlink:href="#DejaVuSans-30" x="63.623047"/>
       <use xlink:href="#DejaVuSans-30" x="127.246094"/>
      </g>
     </g>
    </g>
    <g id="ytick_9">
     <g id="line2d_23">
      <g>
       <use xlink:href="#m87d15ac225" x="515.01733" y="131.567712" style="stroke: #000000; stroke-width: 0.8"/>
      </g>
     </g>
     <g id="text_20">
      <!-- 500 -->
      <g transform="translate(481.29483 136.886618) scale(0.14 -0.14)">
       <use xlink:href="#DejaVuSans-35"/>
       <use xlink:href="#DejaVuSans-30" x="63.623047"/>
       <use xlink:href="#DejaVuSans-30" x="127.246094"/>
      </g>
     </g>
    </g>
    <g id="ytick_10">
     <g id="line2d_24">
      <g>
       <use xlink:href="#m87d15ac225" x="515.01733" y="95.151183" style="stroke: #000000; stroke-width: 0.8"/>
      </g>
     </g>
     <g id="text_21">
      <!-- 600 -->
      <g transform="translate(481.29483 100.470089) scale(0.14 -0.14)">
       <use xlink:href="#DejaVuSans-36"/>
       <use xlink:href="#DejaVuSans-30" x="63.623047"/>
       <use xlink:href="#DejaVuSans-30" x="127.246094"/>
      </g>
     </g>
    </g>
    <g id="ytick_11">
     <g id="line2d_25">
      <g>
       <use xlink:href="#m87d15ac225" x="515.01733" y="58.734654" style="stroke: #000000; stroke-width: 0.8"/>
      </g>
     </g>
     <g id="text_22">
      <!-- 700 -->
      <g transform="translate(481.29483 64.05356) scale(0.14 -0.14)">
       <use xlink:href="#DejaVuSans-37"/>
       <use xlink:href="#DejaVuSans-30" x="63.623047"/>
       <use xlink:href="#DejaVuSans-30" x="127.246094"/>
      </g>
     </g>
    </g>
    <g id="ytick_12">
     <g id="line2d_26">
      <g>
       <use xlink:href="#m87d15ac225" x="515.01733" y="22.318125" style="stroke: #000000; stroke-width: 0.8"/>
      </g>
     </g>
     <g id="text_23">
      <!-- 800 -->
      <g transform="translate(481.29483 27.637031) scale(0.14 -0.14)">
       <use xlink:href="#DejaVuSans-38"/>
       <use xlink:href="#DejaVuSans-30" x="63.623047"/>
       <use xlink:href="#DejaVuSans-30" x="127.246094"/>
      </g>
     </g>
    </g>
    <g id="text_24">
     <!-- Kohlebedarf in t -->
     <g transform="translate(474.383267 178.076392) rotate(-90) scale(0.14 -0.14)">
      <use xlink:href="#DejaVuSans-4b"/>
      <use xlink:href="#DejaVuSans-6f" x="60.576172"/>
      <use xlink:href="#DejaVuSans-68" x="121.757812"/>
      <use xlink:href="#DejaVuSans-6c" x="185.136719"/>
      <use xlink:href="#DejaVuSans-65" x="212.919922"/>
      <use xlink:href="#DejaVuSans-62" x="274.443359"/>
      <use xlink:href="#DejaVuSans-65" x="337.919922"/>
      <use xlink:href="#DejaVuSans-64" x="399.443359"/>
      <use xlink:href="#DejaVuSans-61" x="462.919922"/>
      <use xlink:href="#DejaVuSans-72" x="524.199219"/>
      <use xlink:href="#DejaVuSans-66" x="565.3125"/>
      <use xlink:href="#DejaVuSans-20" x="600.517578"/>
      <use xlink:href="#DejaVuSans-69" x="632.304688"/>
      <use xlink:href="#DejaVuSans-6e" x="660.087891"/>
      <use xlink:href="#DejaVuSans-20" x="723.466797"/>
      <use xlink:href="#DejaVuSans-74" x="755.253906"/>
     </g>
    </g>
   </g>
   <g id="line2d_27">
    <path d="M 535.951431 222.609034 
L 535.951431 22.318125 
" clip-path="url(#p8d8949918d)" style="fill: none; stroke: #ff0000; stroke-width: 0.4; stroke-linecap: square"/>
   </g>
   <g id="line2d_28">
    <path d="M 539.592145 222.609034 
L 539.592145 22.318125 
" clip-path="url(#p8d8949918d)" style="fill: none; stroke: #ff0000; stroke-width: 0.4; stroke-linecap: square"/>
   </g>
   <g id="line2d_29">
    <path d="M 543.232858 222.609034 
L 543.232858 22.318125 
" clip-path="url(#p8d8949918d)" style="fill: none; stroke: #ff0000; stroke-width: 0.4; stroke-linecap: square"/>
   </g>
   <g id="line2d_30">
    <path d="M 550.514285 222.609034 
L 550.514285 22.318125 
" clip-path="url(#p8d8949918d)" style="fill: none; stroke: #ff0000; stroke-width: 0.4; stroke-linecap: square"/>
   </g>
   <g id="line2d_31">
    <path d="M 554.154998 222.609034 
L 554.154998 22.318125 
" clip-path="url(#p8d8949918d)" style="fill: none; stroke: #ff0000; stroke-width: 0.4; stroke-linecap: square"/>
   </g>
   <g id="line2d_32">
    <path d="M 557.795711 222.609034 
L 557.795711 22.318125 
" clip-path="url(#p8d8949918d)" style="fill: none; stroke: #ff0000; stroke-width: 0.4; stroke-linecap: square"/>
   </g>
   <g id="line2d_33">
    <path d="M 561.436425 222.609034 
L 561.436425 22.318125 
" clip-path="url(#p8d8949918d)" style="fill: none; stroke: #ff0000; stroke-width: 0.4; stroke-linecap: square"/>
   </g>
   <g id="line2d_34">
    <path d="M 568.717852 222.609034 
L 568.717852 22.318125 
" clip-path="url(#p8d8949918d)" style="fill: none; stroke: #ff0000; stroke-width: 0.4; stroke-linecap: square"/>
   </g>
   <g id="line2d_35">
    <path d="M 572.358565 222.609034 
L 572.358565 22.318125 
" clip-path="url(#p8d8949918d)" style="fill: none; stroke: #ff0000; stroke-width: 0.4; stroke-linecap: square"/>
   </g>
   <g id="line2d_36">
    <path d="M 575.999278 222.609034 
L 575.999278 22.318125 
" clip-path="url(#p8d8949918d)" style="fill: none; stroke: #ff0000; stroke-width: 0.4; stroke-linecap: square"/>
   </g>
   <g id="line2d_37">
    <path d="M 583.280705 222.609034 
L 583.280705 22.318125 
" clip-path="url(#p8d8949918d)" style="fill: none; stroke: #ff0000; stroke-width: 0.4; stroke-linecap: square"/>
   </g>
   <g id="line2d_38">
    <path d="M 586.921418 222.609034 
L 586.921418 22.318125 
" clip-path="url(#p8d8949918d)" style="fill: none; stroke: #ff0000; stroke-width: 0.4; stroke-linecap: square"/>
   </g>
   <g id="line2d_39">
    <path d="M 590.562132 222.609034 
L 590.562132 22.318125 
" clip-path="url(#p8d8949918d)" style="fill: none; stroke: #ff0000; stroke-width: 0.4; stroke-linecap: square"/>
   </g>
   <g id="line2d_40">
    <path d="M 594.202845 222.609034 
L 594.202845 22.318125 
" clip-path="url(#p8d8949918d)" style="fill: none; stroke: #ff0000; stroke-width: 0.4; stroke-linecap: square"/>
   </g>
   <g id="line2d_41">
    <path d="M 601.484272 222.609034 
L 601.484272 22.318125 
" clip-path="url(#p8d8949918d)" style="fill: none; stroke: #ff0000; stroke-width: 0.4; stroke-linecap: square"/>
   </g>
   <g id="line2d_42">
    <path d="M 605.124985 222.609034 
L 605.124985 22.318125 
" clip-path="url(#p8d8949918d)" style="fill: none; stroke: #ff0000; stroke-width: 0.4; stroke-linecap: square"/>
   </g>
   <g id="line2d_43">
    <path d="M 608.765698 222.609034 
L 608.765698 22.318125 
" clip-path="url(#p8d8949918d)" style="fill: none; stroke: #ff0000; stroke-width: 0.4; stroke-linecap: square"/>
   </g>
   <g id="line2d_44">
    <path d="M 616.047125 222.609034 
L 616.047125 22.318125 
" clip-path="url(#p8d8949918d)" style="fill: none; stroke: #ff0000; stroke-width: 0.4; stroke-linecap: square"/>
   </g>
   <g id="line2d_45">
    <path d="M 619.687838 222.609034 
L 619.687838 22.318125 
" clip-path="url(#p8d8949918d)" style="fill: none; stroke: #ff0000; stroke-width: 0.4; stroke-linecap: square"/>
   </g>
   <g id="line2d_46">
    <path d="M 623.328552 222.609034 
L 623.328552 22.318125 
" clip-path="url(#p8d8949918d)" style="fill: none; stroke: #ff0000; stroke-width: 0.4; stroke-linecap: square"/>
   </g>
   <g id="line2d_47">
    <path d="M 630.609979 222.609034 
L 630.609979 22.318125 
" clip-path="url(#p8d8949918d)" style="fill: none; stroke: #ff0000; stroke-width: 0.4; stroke-linecap: square"/>
   </g>
   <g id="line2d_48">
    <path d="M 634.250692 222.609034 
L 634.250692 22.318125 
" clip-path="url(#p8d8949918d)" style="fill: none; stroke: #ff0000; stroke-width: 0.4; stroke-linecap: square"/>
   </g>
   <g id="line2d_49">
    <path d="M 637.891405 222.609034 
L 637.891405 22.318125 
" clip-path="url(#p8d8949918d)" style="fill: none; stroke: #ff0000; stroke-width: 0.4; stroke-linecap: square"/>
   </g>
   <g id="line2d_50">
    <path d="M 641.532119 222.609034 
L 641.532119 22.318125 
" clip-path="url(#p8d8949918d)" style="fill: none; stroke: #ff0000; stroke-width: 0.4; stroke-linecap: square"/>
   </g>
   <g id="line2d_51">
    <path d="M 648.813545 222.609034 
L 648.813545 22.318125 
" clip-path="url(#p8d8949918d)" style="fill: none; stroke: #ff0000; stroke-width: 0.4; stroke-linecap: square"/>
   </g>
   <g id="line2d_52">
    <path d="M 652.454259 222.609034 
L 652.454259 22.318125 
" clip-path="url(#p8d8949918d)" style="fill: none; stroke: #ff0000; stroke-width: 0.4; stroke-linecap: square"/>
   </g>
   <g id="line2d_53">
    <path d="M 656.094972 222.609034 
L 656.094972 22.318125 
" clip-path="url(#p8d8949918d)" style="fill: none; stroke: #ff0000; stroke-width: 0.4; stroke-linecap: square"/>
   </g>
   <g id="line2d_54">
    <path d="M 663.376399 222.609034 
L 663.376399 22.318125 
" clip-path="url(#p8d8949918d)" style="fill: none; stroke: #ff0000; stroke-width: 0.4; stroke-linecap: square"/>
   </g>
   <g id="line2d_55">
    <path d="M 667.017112 222.609034 
L 667.017112 22.318125 
" clip-path="url(#p8d8949918d)" style="fill: none; stroke: #ff0000; stroke-width: 0.4; stroke-linecap: square"/>
   </g>
   <g id="line2d_56">
    <path d="M 670.657825 222.609034 
L 670.657825 22.318125 
" clip-path="url(#p8d8949918d)" style="fill: none; stroke: #ff0000; stroke-width: 0.4; stroke-linecap: square"/>
   </g>
   <g id="line2d_57">
    <path d="M 674.298539 222.609034 
L 674.298539 22.318125 
" clip-path="url(#p8d8949918d)" style="fill: none; stroke: #ff0000; stroke-width: 0.4; stroke-linecap: square"/>
   </g>
   <g id="line2d_58">
    <path d="M 681.579965 222.609034 
L 681.579965 22.318125 
" clip-path="url(#p8d8949918d)" style="fill: none; stroke: #ff0000; stroke-width: 0.4; stroke-linecap: square"/>
   </g>
   <g id="line2d_59">
    <path d="M 685.220679 222.609034 
L 685.220679 22.318125 
" clip-path="url(#p8d8949918d)" style="fill: none; stroke: #ff0000; stroke-width: 0.4; stroke-linecap: square"/>
   </g>
   <g id="line2d_60">
    <path d="M 688.861392 222.609034 
L 688.861392 22.318125 
" clip-path="url(#p8d8949918d)" style="fill: none; stroke: #ff0000; stroke-width: 0.4; stroke-linecap: square"/>
   </g>
   <g id="line2d_61">
    <path d="M 696.142819 222.609034 
L 696.142819 22.318125 
" clip-path="url(#p8d8949918d)" style="fill: none; stroke: #ff0000; stroke-width: 0.4; stroke-linecap: square"/>
   </g>
   <g id="line2d_62">
    <path d="M 699.783532 222.609034 
L 699.783532 22.318125 
" clip-path="url(#p8d8949918d)" style="fill: none; stroke: #ff0000; stroke-width: 0.4; stroke-linecap: square"/>
   </g>
   <g id="line2d_63">
    <path d="M 703.424246 222.609034 
L 703.424246 22.318125 
" clip-path="url(#p8d8949918d)" style="fill: none; stroke: #ff0000; stroke-width: 0.4; stroke-linecap: square"/>
   </g>
   <g id="line2d_64">
    <path d="M 710.705672 222.609034 
L 710.705672 22.318125 
" clip-path="url(#p8d8949918d)" style="fill: none; stroke: #ff0000; stroke-width: 0.4; stroke-linecap: square"/>
   </g>
   <g id="line2d_65">
    <path d="M 714.346386 222.609034 
L 714.346386 22.318125 
" clip-path="url(#p8d8949918d)" style="fill: none; stroke: #ff0000; stroke-width: 0.4; stroke-linecap: square"/>
   </g>
   <g id="line2d_66">
    <path d="M 717.987099 222.609034 
L 717.987099 22.318125 
" clip-path="url(#p8d8949918d)" style="fill: none; stroke: #ff0000; stroke-width: 0.4; stroke-linecap: square"/>
   </g>
   <g id="line2d_67">
    <path d="M 721.627812 222.609034 
L 721.627812 22.318125 
" clip-path="url(#p8d8949918d)" style="fill: none; stroke: #ff0000; stroke-width: 0.4; stroke-linecap: square"/>
   </g>
   <g id="line2d_68">
    <path d="M 728.909239 222.609034 
L 728.909239 22.318125 
" clip-path="url(#p8d8949918d)" style="fill: none; stroke: #ff0000; stroke-width: 0.4; stroke-linecap: square"/>
   </g>
   <g id="line2d_69">
    <path d="M 732.549952 222.609034 
L 732.549952 22.318125 
" clip-path="url(#p8d8949918d)" style="fill: none; stroke: #ff0000; stroke-width: 0.4; stroke-linecap: square"/>
   </g>
   <g id="line2d_70">
    <path d="M 736.190666 222.609034 
L 736.190666 22.318125 
" clip-path="url(#p8d8949918d)" style="fill: none; stroke: #ff0000; stroke-width: 0.4; stroke-linecap: square"/>
   </g>
   <g id="line2d_71">
    <path d="M 743.472092 222.609034 
L 743.472092 22.318125 
" clip-path="url(#p8d8949918d)" style="fill: none; stroke: #ff0000; stroke-width: 0.4; stroke-linecap: square"/>
   </g>
   <g id="line2d_72">
    <path d="M 747.112806 222.609034 
L 747.112806 22.318125 
" clip-path="url(#p8d8949918d)" style="fill: none; stroke: #ff0000; stroke-width: 0.4; stroke-linecap: square"/>
   </g>
   <g id="line2d_73">
    <path d="M 750.753519 222.609034 
L 750.753519 22.318125 
" clip-path="url(#p8d8949918d)" style="fill: none; stroke: #ff0000; stroke-width: 0.4; stroke-linecap: square"/>
   </g>
   <g id="line2d_74">
    <path d="M 754.394233 222.609034 
L 754.394233 22.318125 
" clip-path="url(#p8d8949918d)" style="fill: none; stroke: #ff0000; stroke-width: 0.4; stroke-linecap: square"/>
   </g>
   <g id="line2d_75">
    <path d="M 761.675659 222.609034 
L 761.675659 22.318125 
" clip-path="url(#p8d8949918d)" style="fill: none; stroke: #ff0000; stroke-width: 0.4; stroke-linecap: square"/>
   </g>
   <g id="line2d_76">
    <path d="M 765.316373 222.609034 
L 765.316373 22.318125 
" clip-path="url(#p8d8949918d)" style="fill: none; stroke: #ff0000; stroke-width: 0.4; stroke-linecap: square"/>
   </g>
   <g id="line2d_77">
    <path d="M 768.957086 222.609034 
L 768.957086 22.318125 
" clip-path="url(#p8d8949918d)" style="fill: none; stroke: #ff0000; stroke-width: 0.4; stroke-linecap: square"/>
   </g>
   <g id="line2d_78">
    <path d="M 776.238513 222.609034 
L 776.238513 22.318125 
" clip-path="url(#p8d8949918d)" style="fill: none; stroke: #ff0000; stroke-width: 0.4; stroke-linecap: square"/>
   </g>
   <g id="line2d_79">
    <path d="M 779.879226 222.609034 
L 779.879226 22.318125 
" clip-path="url(#p8d8949918d)" style="fill: none; stroke: #ff0000; stroke-width: 0.4; stroke-linecap: square"/>
   </g>
   <g id="line2d_80">
    <path d="M 783.519939 222.609034 
L 783.519939 22.318125 
" clip-path="url(#p8d8949918d)" style="fill: none; stroke: #ff0000; stroke-width: 0.4; stroke-linecap: square"/>
   </g>
   <g id="line2d_81">
    <path d="M 787.160653 222.609034 
L 787.160653 22.318125 
" clip-path="url(#p8d8949918d)" style="fill: none; stroke: #ff0000; stroke-width: 0.4; stroke-linecap: square"/>
   </g>
   <g id="line2d_82">
    <path d="M 794.442079 222.609034 
L 794.442079 22.318125 
" clip-path="url(#p8d8949918d)" style="fill: none; stroke: #ff0000; stroke-width: 0.4; stroke-linecap: square"/>
   </g>
   <g id="line2d_83">
    <path d="M 798.082793 222.609034 
L 798.082793 22.318125 
" clip-path="url(#p8d8949918d)" style="fill: none; stroke: #ff0000; stroke-width: 0.4; stroke-linecap: square"/>
   </g>
   <g id="line2d_84">
    <path d="M 801.723506 222.609034 
L 801.723506 22.318125 
" clip-path="url(#p8d8949918d)" style="fill: none; stroke: #ff0000; stroke-width: 0.4; stroke-linecap: square"/>
   </g>
   <g id="line2d_85">
    <path d="M 809.004933 222.609034 
L 809.004933 22.318125 
" clip-path="url(#p8d8949918d)" style="fill: none; stroke: #ff0000; stroke-width: 0.4; stroke-linecap: square"/>
   </g>
   <g id="line2d_86">
    <path d="M 812.645646 222.609034 
L 812.645646 22.318125 
" clip-path="url(#p8d8949918d)" style="fill: none; stroke: #ff0000; stroke-width: 0.4; stroke-linecap: square"/>
   </g>
   <g id="line2d_87">
    <path d="M 816.28636 222.609034 
L 816.28636 22.318125 
" clip-path="url(#p8d8949918d)" style="fill: none; stroke: #ff0000; stroke-width: 0.4; stroke-linecap: square"/>
   </g>
   <g id="line2d_88">
    <path d="M 819.927073 222.609034 
L 819.927073 22.318125 
" clip-path="url(#p8d8949918d)" style="fill: none; stroke: #ff0000; stroke-width: 0.4; stroke-linecap: square"/>
   </g>
   <g id="line2d_89">
    <path d="M 827.2085 222.609034 
L 827.2085 22.318125 
" clip-path="url(#p8d8949918d)" style="fill: none; stroke: #ff0000; stroke-width: 0.4; stroke-linecap: square"/>
   </g>
   <g id="line2d_90">
    <path d="M 830.849213 222.609034 
L 830.849213 22.318125 
" clip-path="url(#p8d8949918d)" style="fill: none; stroke: #ff0000; stroke-width: 0.4; stroke-linecap: square"/>
   </g>
   <g id="line2d_91">
    <path d="M 834.489926 222.609034 
L 834.489926 22.318125 
" clip-path="url(#p8d8949918d)" style="fill: none; stroke: #ff0000; stroke-width: 0.4; stroke-linecap: square"/>
   </g>
   <g id="line2d_92">
    <path d="M 841.771353 222.609034 
L 841.771353 22.318125 
" clip-path="url(#p8d8949918d)" style="fill: none; stroke: #ff0000; stroke-width: 0.4; stroke-linecap: square"/>
   </g>
   <g id="line2d_93">
    <path d="M 845.412066 222.609034 
L 845.412066 22.318125 
" clip-path="url(#p8d8949918d)" style="fill: none; stroke: #ff0000; stroke-width: 0.4; stroke-linecap: square"/>
   </g>
   <g id="line2d_94">
    <path d="M 849.05278 222.609034 
L 849.05278 22.318125 
" clip-path="url(#p8d8949918d)" style="fill: none; stroke: #ff0000; stroke-width: 0.4; stroke-linecap: square"/>
   </g>
   <g id="line2d_95">
    <path d="M 852.693493 222.609034 
L 852.693493 22.318125 
" clip-path="url(#p8d8949918d)" style="fill: none; stroke: #ff0000; stroke-width: 0.4; stroke-linecap: square"/>
   </g>
   <g id="line2d_96">
    <path d="M 859.97492 222.609034 
L 859.97492 22.318125 
" clip-path="url(#p8d8949918d)" style="fill: none; stroke: #ff0000; stroke-width: 0.4; stroke-linecap: square"/>
   </g>
   <g id="line2d_97">
    <path d="M 863.615633 222.609034 
L 863.615633 22.318125 
" clip-path="url(#p8d8949918d)" style="fill: none; stroke: #ff0000; stroke-width: 0.4; stroke-linecap: square"/>
   </g>
   <g id="line2d_98">
    <path d="M 867.256347 222.609034 
L 867.256347 22.318125 
" clip-path="url(#p8d8949918d)" style="fill: none; stroke: #ff0000; stroke-width: 0.4; stroke-linecap: square"/>
   </g>
   <g id="line2d_99">
    <path d="M 874.537773 222.609034 
L 874.537773 22.318125 
" clip-path="url(#p8d8949918d)" style="fill: none; stroke: #ff0000; stroke-width: 0.4; stroke-linecap: square"/>
   </g>
   <g id="line2d_100">
    <path d="M 878.178487 222.609034 
L 878.178487 22.318125 
" clip-path="url(#p8d8949918d)" style="fill: none; stroke: #ff0000; stroke-width: 0.4; stroke-linecap: square"/>
   </g>
   <g id="line2d_101">
    <path d="M 532.310718 39.867322 
L 535.951431 40.556869 
L 539.592145 40.556869 
L 543.232858 40.0315 
L 546.873571 39.210611 
L 550.514285 39.834487 
L 554.154998 39.079268 
L 557.795711 39.670309 
L 561.436425 40.655376 
L 565.077138 40.950896 
L 568.717852 41.180745 
L 572.358565 41.14791 
L 575.999278 41.509101 
L 579.639992 41.44343 
L 583.280705 41.541937 
L 586.921418 42.691182 
L 590.562132 43.74192 
L 594.202845 44.464303 
L 597.843558 44.332961 
L 601.484272 44.595645 
L 605.124985 44.825494 
L 608.765698 44.004605 
L 612.406412 44.135947 
L 616.047125 44.300125 
L 619.687838 44.891165 
L 623.328552 45.679219 
L 626.969265 45.088179 
L 630.609979 44.464303 
L 634.250692 44.234454 
L 637.891405 43.774756 
L 641.532119 44.267289 
L 645.172832 43.577742 
L 648.813545 42.461333 
L 652.454259 43.840427 
L 656.094972 44.03744 
L 659.735685 43.610578 
L 663.376399 42.231484 
L 667.017112 42.03447 
L 670.657825 42.100141 
L 674.298539 42.691182 
L 677.939252 41.607608 
L 681.579965 42.658346 
L 685.220679 41.968799 
L 688.861392 42.986702 
L 692.502106 43.347893 
L 696.142819 44.201618 
L 699.783532 44.267289 
L 703.424246 44.628481 
L 707.064959 42.986702 
L 710.705672 42.85536 
L 714.346386 43.413564 
L 717.987099 44.004605 
L 721.627812 42.32999 
L 725.268526 42.297155 
L 728.909239 42.724017 
L 732.549952 42.986702 
L 736.190666 41.312087 
L 739.831379 42.362826 
L 743.472092 42.953866 
L 747.112806 42.461333 
L 750.753519 42.297155 
L 754.394233 42.32999 
L 758.034946 41.541937 
L 761.675659 42.067306 
L 765.316373 41.837457 
L 768.957086 41.115074 
L 772.597799 41.574772 
L 776.238513 42.03447 
L 779.879226 42.921031 
L 783.519939 42.198648 
L 787.160653 42.527004 
L 790.801366 42.428497 
L 794.442079 42.888195 
L 798.082793 42.494168 
L 801.723506 42.527004 
L 805.364219 41.870292 
L 809.004933 43.347893 
L 812.645646 42.658346 
L 816.28636 44.004605 
L 819.927073 42.756853 
L 823.567786 42.067306 
L 827.2085 42.362826 
L 830.849213 42.953866 
L 834.489926 42.132977 
L 838.13064 42.921031 
L 841.771353 42.132977 
L 845.412066 42.165812 
L 849.05278 41.73895 
L 852.693493 41.246416 
L 856.334206 42.428497 
L 859.97492 41.344923 
L 863.615633 42.067306 
L 867.256347 42.03447 
L 870.89706 41.837457 
L 874.537773 41.903128 
L 878.178487 42.100141 
" clip-path="url(#p8d8949918d)" style="fill: none; stroke: #000000; stroke-width: 1.5; stroke-linecap: square"/>
   </g>
   <g id="patch_10">
    <path d="M 515.01733 222.609034 
L 515.01733 22.318125 
" style="fill: none; stroke: #000000; stroke-width: 0.8; stroke-linejoin: miter; stroke-linecap: square"/>
   </g>
   <g id="patch_11">
    <path d="M 895.471875 222.609034 
L 895.471875 22.318125 
" style="fill: none; stroke: #000000; stroke-width: 0.8; stroke-linejoin: miter; stroke-linecap: square"/>
   </g>
   <g id="patch_12">
    <path d="M 515.01733 222.609034 
L 895.471875 222.609034 
" style="fill: none; stroke: #000000; stroke-width: 0.8; stroke-linejoin: miter; stroke-linecap: square"/>
   </g>
   <g id="patch_13">
    <path d="M 515.01733 22.318125 
L 895.471875 22.318125 
" style="fill: none; stroke: #000000; stroke-width: 0.8; stroke-linejoin: miter; stroke-linecap: square"/>
   </g>
   <g id="text_25">
    <!-- b -->
    <g transform="translate(532.310718 204.40077) scale(0.2 -0.2)">
     <use xlink:href="#DejaVuSans-62"/>
    </g>
   </g>
   <g id="text_26">
    <!-- A: 26.01.2023 12:00 - 27.01.2023 12:00 -->
    <g transform="translate(584.234915 16.318125) scale(0.12 -0.12)">
     <defs>
      <path id="DejaVuSans-3a" d="M 750 794 
L 1409 794 
L 1409 0 
L 750 0 
L 750 794 
z
M 750 3309 
L 1409 3309 
L 1409 2516 
L 750 2516 
L 750 3309 
z
" transform="scale(0.015625)"/>
      <path id="DejaVuSans-2d" d="M 313 2009 
L 1997 2009 
L 1997 1497 
L 313 1497 
L 313 2009 
z
" transform="scale(0.015625)"/>
     </defs>
     <use xlink:href="#DejaVuSans-41"/>
     <use xlink:href="#DejaVuSans-3a" x="66.658203"/>
     <use xlink:href="#DejaVuSans-20" x="100.349609"/>
     <use xlink:href="#DejaVuSans-32" x="132.136719"/>
     <use xlink:href="#DejaVuSans-36" x="195.759766"/>
     <use xlink:href="#DejaVuSans-2e" x="259.382812"/>
     <use xlink:href="#DejaVuSans-30" x="291.169922"/>
     <use xlink:href="#DejaVuSans-31" x="354.792969"/>
     <use xlink:href="#DejaVuSans-2e" x="418.416016"/>
     <use xlink:href="#DejaVuSans-32" x="450.203125"/>
     <use xlink:href="#DejaVuSans-30" x="513.826172"/>
     <use xlink:href="#DejaVuSans-32" x="577.449219"/>
     <use xlink:href="#DejaVuSans-33" x="641.072266"/>
     <use xlink:href="#DejaVuSans-20" x="704.695312"/>
     <use xlink:href="#DejaVuSans-31" x="736.482422"/>
     <use xlink:href="#DejaVuSans-32" x="800.105469"/>
     <use xlink:href="#DejaVuSans-3a" x="863.728516"/>
     <use xlink:href="#DejaVuSans-30" x="897.419922"/>
     <use xlink:href="#DejaVuSans-30" x="961.042969"/>
     <use xlink:href="#DejaVuSans-20" x="1024.666016"/>
     <use xlink:href="#DejaVuSans-2d" x="1056.453125"/>
     <use xlink:href="#DejaVuSans-20" x="1092.537109"/>
     <use xlink:href="#DejaVuSans-32" x="1124.324219"/>
     <use xlink:href="#DejaVuSans-37" x="1187.947266"/>
     <use xlink:href="#DejaVuSans-2e" x="1251.570312"/>
     <use xlink:href="#DejaVuSans-30" x="1283.357422"/>
     <use xlink:href="#DejaVuSans-31" x="1346.980469"/>
     <use xlink:href="#DejaVuSans-2e" x="1410.603516"/>
     <use xlink:href="#DejaVuSans-32" x="1442.390625"/>
     <use xlink:href="#DejaVuSans-30" x="1506.013672"/>
     <use xlink:href="#DejaVuSans-32" x="1569.636719"/>
     <use xlink:href="#DejaVuSans-33" x="1633.259766"/>
     <use xlink:href="#DejaVuSans-20" x="1696.882812"/>
     <use xlink:href="#DejaVuSans-31" x="1728.669922"/>
     <use xlink:href="#DejaVuSans-32" x="1792.292969"/>
     <use xlink:href="#DejaVuSans-3a" x="1855.916016"/>
     <use xlink:href="#DejaVuSans-30" x="1889.607422"/>
     <use xlink:href="#DejaVuSans-30" x="1953.230469"/>
    </g>
   </g>
  </g>
  <g id="axes_3">
   <g id="patch_14">
    <path d="M 515.01733 462.958125 
L 895.471875 462.958125 
L 895.471875 262.667216 
L 515.01733 262.667216 
z
" style="fill: #ffffff"/>
   </g>
   <g id="matplotlib.axis_5">
    <g id="xtick_14">
     <g id="line2d_102">
      <g>
       <use xlink:href="#m9903a92d5a" x="532.310718" y="462.958125" style="stroke: #000000; stroke-width: 0.8"/>
      </g>
     </g>
     <g id="text_27">
      <!-- 12:00 -->
      <g transform="translate(495.914059 499.343866) rotate(-30) scale(0.14 -0.14)">
       <use xlink:href="#DejaVuSans-31"/>
       <use xlink:href="#DejaVuSans-32" x="63.623047"/>
       <use xlink:href="#DejaVuSans-3a" x="127.246094"/>
       <use xlink:href="#DejaVuSans-30" x="160.9375"/>
       <use xlink:href="#DejaVuSans-30" x="224.560547"/>
      </g>
     </g>
    </g>
    <g id="xtick_15">
     <g id="line2d_103">
      <g>
       <use xlink:href="#m9903a92d5a" x="590.562132" y="462.958125" style="stroke: #000000; stroke-width: 0.8"/>
      </g>
     </g>
     <g id="text_28">
      <!-- 16:00 -->
      <g transform="translate(554.165473 499.343866) rotate(-30) scale(0.14 -0.14)">
       <use xlink:href="#DejaVuSans-31"/>
       <use xlink:href="#DejaVuSans-36" x="63.623047"/>
       <use xlink:href="#DejaVuSans-3a" x="127.246094"/>
       <use xlink:href="#DejaVuSans-30" x="160.9375"/>
       <use xlink:href="#DejaVuSans-30" x="224.560547"/>
      </g>
     </g>
    </g>
    <g id="xtick_16">
     <g id="line2d_104">
      <g>
       <use xlink:href="#m9903a92d5a" x="648.813545" y="462.958125" style="stroke: #000000; stroke-width: 0.8"/>
      </g>
     </g>
     <g id="text_29">
      <!-- 20:00 -->
      <g transform="translate(612.416887 499.343866) rotate(-30) scale(0.14 -0.14)">
       <use xlink:href="#DejaVuSans-32"/>
       <use xlink:href="#DejaVuSans-30" x="63.623047"/>
       <use xlink:href="#DejaVuSans-3a" x="127.246094"/>
       <use xlink:href="#DejaVuSans-30" x="160.9375"/>
       <use xlink:href="#DejaVuSans-30" x="224.560547"/>
      </g>
     </g>
    </g>
    <g id="xtick_17">
     <g id="line2d_105">
      <g>
       <use xlink:href="#m9903a92d5a" x="707.064959" y="462.958125" style="stroke: #000000; stroke-width: 0.8"/>
      </g>
     </g>
     <g id="text_30">
      <!-- 00:00 -->
      <g transform="translate(670.6683 499.343866) rotate(-30) scale(0.14 -0.14)">
       <use xlink:href="#DejaVuSans-30"/>
       <use xlink:href="#DejaVuSans-30" x="63.623047"/>
       <use xlink:href="#DejaVuSans-3a" x="127.246094"/>
       <use xlink:href="#DejaVuSans-30" x="160.9375"/>
       <use xlink:href="#DejaVuSans-30" x="224.560547"/>
      </g>
     </g>
    </g>
    <g id="xtick_18">
     <g id="line2d_106">
      <g>
       <use xlink:href="#m9903a92d5a" x="765.316373" y="462.958125" style="stroke: #000000; stroke-width: 0.8"/>
      </g>
     </g>
     <g id="text_31">
      <!-- 04:00 -->
      <g transform="translate(728.919714 499.343866) rotate(-30) scale(0.14 -0.14)">
       <use xlink:href="#DejaVuSans-30"/>
       <use xlink:href="#DejaVuSans-34" x="63.623047"/>
       <use xlink:href="#DejaVuSans-3a" x="127.246094"/>
       <use xlink:href="#DejaVuSans-30" x="160.9375"/>
       <use xlink:href="#DejaVuSans-30" x="224.560547"/>
      </g>
     </g>
    </g>
    <g id="xtick_19">
     <g id="line2d_107">
      <g>
       <use xlink:href="#m9903a92d5a" x="823.567786" y="462.958125" style="stroke: #000000; stroke-width: 0.8"/>
      </g>
     </g>
     <g id="text_32">
      <!-- 08:00 -->
      <g transform="translate(787.171128 499.343866) rotate(-30) scale(0.14 -0.14)">
       <use xlink:href="#DejaVuSans-30"/>
       <use xlink:href="#DejaVuSans-38" x="63.623047"/>
       <use xlink:href="#DejaVuSans-3a" x="127.246094"/>
       <use xlink:href="#DejaVuSans-30" x="160.9375"/>
       <use xlink:href="#DejaVuSans-30" x="224.560547"/>
      </g>
     </g>
    </g>
    <g id="xtick_20">
     <g id="line2d_108">
      <g>
       <use xlink:href="#m9903a92d5a" x="881.8192" y="462.958125" style="stroke: #000000; stroke-width: 0.8"/>
      </g>
     </g>
     <g id="text_33">
      <!-- 12:00 -->
      <g transform="translate(845.422541 499.343866) rotate(-30) scale(0.14 -0.14)">
       <use xlink:href="#DejaVuSans-31"/>
       <use xlink:href="#DejaVuSans-32" x="63.623047"/>
       <use xlink:href="#DejaVuSans-3a" x="127.246094"/>
       <use xlink:href="#DejaVuSans-30" x="160.9375"/>
       <use xlink:href="#DejaVuSans-30" x="224.560547"/>
      </g>
     </g>
    </g>
    <g id="text_34">
     <!-- Zeit -->
     <g transform="translate(691.453509 516.503165) scale(0.14 -0.14)">
      <use xlink:href="#DejaVuSans-5a"/>
      <use xlink:href="#DejaVuSans-65" x="68.505859"/>
      <use xlink:href="#DejaVuSans-69" x="130.029297"/>
      <use xlink:href="#DejaVuSans-74" x="157.8125"/>
     </g>
    </g>
   </g>
   <g id="matplotlib.axis_6">
    <g id="ytick_13">
     <g id="line2d_109">
      <g>
       <use xlink:href="#m87d15ac225" x="515.01733" y="444.749861" style="stroke: #000000; stroke-width: 0.8"/>
      </g>
     </g>
     <g id="text_35">
      <!-- 300 -->
      <g transform="translate(481.29483 450.068767) scale(0.14 -0.14)">
       <use xlink:href="#DejaVuSans-33"/>
       <use xlink:href="#DejaVuSans-30" x="63.623047"/>
       <use xlink:href="#DejaVuSans-30" x="127.246094"/>
      </g>
     </g>
    </g>
    <g id="ytick_14">
     <g id="line2d_110">
      <g>
       <use xlink:href="#m87d15ac225" x="515.01733" y="408.333332" style="stroke: #000000; stroke-width: 0.8"/>
      </g>
     </g>
     <g id="text_36">
      <!-- 400 -->
      <g transform="translate(481.29483 413.652238) scale(0.14 -0.14)">
       <use xlink:href="#DejaVuSans-34"/>
       <use xlink:href="#DejaVuSans-30" x="63.623047"/>
       <use xlink:href="#DejaVuSans-30" x="127.246094"/>
      </g>
     </g>
    </g>
    <g id="ytick_15">
     <g id="line2d_111">
      <g>
       <use xlink:href="#m87d15ac225" x="515.01733" y="371.916803" style="stroke: #000000; stroke-width: 0.8"/>
      </g>
     </g>
     <g id="text_37">
      <!-- 500 -->
      <g transform="translate(481.29483 377.235709) scale(0.14 -0.14)">
       <use xlink:href="#DejaVuSans-35"/>
       <use xlink:href="#DejaVuSans-30" x="63.623047"/>
       <use xlink:href="#DejaVuSans-30" x="127.246094"/>
      </g>
     </g>
    </g>
    <g id="ytick_16">
     <g id="line2d_112">
      <g>
       <use xlink:href="#m87d15ac225" x="515.01733" y="335.500274" style="stroke: #000000; stroke-width: 0.8"/>
      </g>
     </g>
     <g id="text_38">
      <!-- 600 -->
      <g transform="translate(481.29483 340.81918) scale(0.14 -0.14)">
       <use xlink:href="#DejaVuSans-36"/>
       <use xlink:href="#DejaVuSans-30" x="63.623047"/>
       <use xlink:href="#DejaVuSans-30" x="127.246094"/>
      </g>
     </g>
    </g>
    <g id="ytick_17">
     <g id="line2d_113">
      <g>
       <use xlink:href="#m87d15ac225" x="515.01733" y="299.083745" style="stroke: #000000; stroke-width: 0.8"/>
      </g>
     </g>
     <g id="text_39">
      <!-- 700 -->
      <g transform="translate(481.29483 304.402651) scale(0.14 -0.14)">
       <use xlink:href="#DejaVuSans-37"/>
       <use xlink:href="#DejaVuSans-30" x="63.623047"/>
       <use xlink:href="#DejaVuSans-30" x="127.246094"/>
      </g>
     </g>
    </g>
    <g id="ytick_18">
     <g id="line2d_114">
      <g>
       <use xlink:href="#m87d15ac225" x="515.01733" y="262.667216" style="stroke: #000000; stroke-width: 0.8"/>
      </g>
     </g>
     <g id="text_40">
      <!-- 800 -->
      <g transform="translate(481.29483 267.986122) scale(0.14 -0.14)">
       <use xlink:href="#DejaVuSans-38"/>
       <use xlink:href="#DejaVuSans-30" x="63.623047"/>
       <use xlink:href="#DejaVuSans-30" x="127.246094"/>
      </g>
     </g>
    </g>
    <g id="text_41">
     <!-- Kohlebedarf in t -->
     <g transform="translate(474.383267 418.425483) rotate(-90) scale(0.14 -0.14)">
      <use xlink:href="#DejaVuSans-4b"/>
      <use xlink:href="#DejaVuSans-6f" x="60.576172"/>
      <use xlink:href="#DejaVuSans-68" x="121.757812"/>
      <use xlink:href="#DejaVuSans-6c" x="185.136719"/>
      <use xlink:href="#DejaVuSans-65" x="212.919922"/>
      <use xlink:href="#DejaVuSans-62" x="274.443359"/>
      <use xlink:href="#DejaVuSans-65" x="337.919922"/>
      <use xlink:href="#DejaVuSans-64" x="399.443359"/>
      <use xlink:href="#DejaVuSans-61" x="462.919922"/>
      <use xlink:href="#DejaVuSans-72" x="524.199219"/>
      <use xlink:href="#DejaVuSans-66" x="565.3125"/>
      <use xlink:href="#DejaVuSans-20" x="600.517578"/>
      <use xlink:href="#DejaVuSans-69" x="632.304688"/>
      <use xlink:href="#DejaVuSans-6e" x="660.087891"/>
      <use xlink:href="#DejaVuSans-20" x="723.466797"/>
      <use xlink:href="#DejaVuSans-74" x="755.253906"/>
     </g>
    </g>
   </g>
   <g id="line2d_115">
    <path d="M 535.951431 462.958125 
L 535.951431 262.667216 
" clip-path="url(#p77c484be21)" style="fill: none; stroke: #ff0000; stroke-width: 0.4; stroke-linecap: square"/>
   </g>
   <g id="line2d_116">
    <path d="M 539.592145 462.958125 
L 539.592145 262.667216 
" clip-path="url(#p77c484be21)" style="fill: none; stroke: #ff0000; stroke-width: 0.4; stroke-linecap: square"/>
   </g>
   <g id="line2d_117">
    <path d="M 546.873571 462.958125 
L 546.873571 262.667216 
" clip-path="url(#p77c484be21)" style="fill: none; stroke: #ff0000; stroke-width: 0.4; stroke-linecap: square"/>
   </g>
   <g id="line2d_118">
    <path d="M 550.514285 462.958125 
L 550.514285 262.667216 
" clip-path="url(#p77c484be21)" style="fill: none; stroke: #ff0000; stroke-width: 0.4; stroke-linecap: square"/>
   </g>
   <g id="line2d_119">
    <path d="M 554.154998 462.958125 
L 554.154998 262.667216 
" clip-path="url(#p77c484be21)" style="fill: none; stroke: #ff0000; stroke-width: 0.4; stroke-linecap: square"/>
   </g>
   <g id="line2d_120">
    <path d="M 561.436425 462.958125 
L 561.436425 262.667216 
" clip-path="url(#p77c484be21)" style="fill: none; stroke: #ff0000; stroke-width: 0.4; stroke-linecap: square"/>
   </g>
   <g id="line2d_121">
    <path d="M 565.077138 462.958125 
L 565.077138 262.667216 
" clip-path="url(#p77c484be21)" style="fill: none; stroke: #ff0000; stroke-width: 0.4; stroke-linecap: square"/>
   </g>
   <g id="line2d_122">
    <path d="M 572.358565 462.958125 
L 572.358565 262.667216 
" clip-path="url(#p77c484be21)" style="fill: none; stroke: #ff0000; stroke-width: 0.4; stroke-linecap: square"/>
   </g>
   <g id="line2d_123">
    <path d="M 575.999278 462.958125 
L 575.999278 262.667216 
" clip-path="url(#p77c484be21)" style="fill: none; stroke: #ff0000; stroke-width: 0.4; stroke-linecap: square"/>
   </g>
   <g id="line2d_124">
    <path d="M 579.639992 462.958125 
L 579.639992 262.667216 
" clip-path="url(#p77c484be21)" style="fill: none; stroke: #ff0000; stroke-width: 0.4; stroke-linecap: square"/>
   </g>
   <g id="line2d_125">
    <path d="M 586.921418 462.958125 
L 586.921418 262.667216 
" clip-path="url(#p77c484be21)" style="fill: none; stroke: #ff0000; stroke-width: 0.4; stroke-linecap: square"/>
   </g>
   <g id="line2d_126">
    <path d="M 590.562132 462.958125 
L 590.562132 262.667216 
" clip-path="url(#p77c484be21)" style="fill: none; stroke: #ff0000; stroke-width: 0.4; stroke-linecap: square"/>
   </g>
   <g id="line2d_127">
    <path d="M 594.202845 462.958125 
L 594.202845 262.667216 
" clip-path="url(#p77c484be21)" style="fill: none; stroke: #ff0000; stroke-width: 0.4; stroke-linecap: square"/>
   </g>
   <g id="line2d_128">
    <path d="M 601.484272 462.958125 
L 601.484272 262.667216 
" clip-path="url(#p77c484be21)" style="fill: none; stroke: #ff0000; stroke-width: 0.4; stroke-linecap: square"/>
   </g>
   <g id="line2d_129">
    <path d="M 605.124985 462.958125 
L 605.124985 262.667216 
" clip-path="url(#p77c484be21)" style="fill: none; stroke: #ff0000; stroke-width: 0.4; stroke-linecap: square"/>
   </g>
   <g id="line2d_130">
    <path d="M 612.406412 462.958125 
L 612.406412 262.667216 
" clip-path="url(#p77c484be21)" style="fill: none; stroke: #ff0000; stroke-width: 0.4; stroke-linecap: square"/>
   </g>
   <g id="line2d_131">
    <path d="M 616.047125 462.958125 
L 616.047125 262.667216 
" clip-path="url(#p77c484be21)" style="fill: none; stroke: #ff0000; stroke-width: 0.4; stroke-linecap: square"/>
   </g>
   <g id="line2d_132">
    <path d="M 619.687838 462.958125 
L 619.687838 262.667216 
" clip-path="url(#p77c484be21)" style="fill: none; stroke: #ff0000; stroke-width: 0.4; stroke-linecap: square"/>
   </g>
   <g id="line2d_133">
    <path d="M 626.969265 462.958125 
L 626.969265 262.667216 
" clip-path="url(#p77c484be21)" style="fill: none; stroke: #ff0000; stroke-width: 0.4; stroke-linecap: square"/>
   </g>
   <g id="line2d_134">
    <path d="M 630.609979 462.958125 
L 630.609979 262.667216 
" clip-path="url(#p77c484be21)" style="fill: none; stroke: #ff0000; stroke-width: 0.4; stroke-linecap: square"/>
   </g>
   <g id="line2d_135">
    <path d="M 634.250692 462.958125 
L 634.250692 262.667216 
" clip-path="url(#p77c484be21)" style="fill: none; stroke: #ff0000; stroke-width: 0.4; stroke-linecap: square"/>
   </g>
   <g id="line2d_136">
    <path d="M 641.532119 462.958125 
L 641.532119 262.667216 
" clip-path="url(#p77c484be21)" style="fill: none; stroke: #ff0000; stroke-width: 0.4; stroke-linecap: square"/>
   </g>
   <g id="line2d_137">
    <path d="M 645.172832 462.958125 
L 645.172832 262.667216 
" clip-path="url(#p77c484be21)" style="fill: none; stroke: #ff0000; stroke-width: 0.4; stroke-linecap: square"/>
   </g>
   <g id="line2d_138">
    <path d="M 652.454259 462.958125 
L 652.454259 262.667216 
" clip-path="url(#p77c484be21)" style="fill: none; stroke: #ff0000; stroke-width: 0.4; stroke-linecap: square"/>
   </g>
   <g id="line2d_139">
    <path d="M 656.094972 462.958125 
L 656.094972 262.667216 
" clip-path="url(#p77c484be21)" style="fill: none; stroke: #ff0000; stroke-width: 0.4; stroke-linecap: square"/>
   </g>
   <g id="line2d_140">
    <path d="M 659.735685 462.958125 
L 659.735685 262.667216 
" clip-path="url(#p77c484be21)" style="fill: none; stroke: #ff0000; stroke-width: 0.4; stroke-linecap: square"/>
   </g>
   <g id="line2d_141">
    <path d="M 667.017112 462.958125 
L 667.017112 262.667216 
" clip-path="url(#p77c484be21)" style="fill: none; stroke: #ff0000; stroke-width: 0.4; stroke-linecap: square"/>
   </g>
   <g id="line2d_142">
    <path d="M 670.657825 462.958125 
L 670.657825 262.667216 
" clip-path="url(#p77c484be21)" style="fill: none; stroke: #ff0000; stroke-width: 0.4; stroke-linecap: square"/>
   </g>
   <g id="line2d_143">
    <path d="M 677.939252 462.958125 
L 677.939252 262.667216 
" clip-path="url(#p77c484be21)" style="fill: none; stroke: #ff0000; stroke-width: 0.4; stroke-linecap: square"/>
   </g>
   <g id="line2d_144">
    <path d="M 681.579965 462.958125 
L 681.579965 262.667216 
" clip-path="url(#p77c484be21)" style="fill: none; stroke: #ff0000; stroke-width: 0.4; stroke-linecap: square"/>
   </g>
   <g id="line2d_145">
    <path d="M 688.861392 462.958125 
L 688.861392 262.667216 
" clip-path="url(#p77c484be21)" style="fill: none; stroke: #ff0000; stroke-width: 0.4; stroke-linecap: square"/>
   </g>
   <g id="line2d_146">
    <path d="M 692.502106 462.958125 
L 692.502106 262.667216 
" clip-path="url(#p77c484be21)" style="fill: none; stroke: #ff0000; stroke-width: 0.4; stroke-linecap: square"/>
   </g>
   <g id="line2d_147">
    <path d="M 699.783532 462.958125 
L 699.783532 262.667216 
" clip-path="url(#p77c484be21)" style="fill: none; stroke: #ff0000; stroke-width: 0.4; stroke-linecap: square"/>
   </g>
   <g id="line2d_148">
    <path d="M 703.424246 462.958125 
L 703.424246 262.667216 
" clip-path="url(#p77c484be21)" style="fill: none; stroke: #ff0000; stroke-width: 0.4; stroke-linecap: square"/>
   </g>
   <g id="line2d_149">
    <path d="M 710.705672 462.958125 
L 710.705672 262.667216 
" clip-path="url(#p77c484be21)" style="fill: none; stroke: #ff0000; stroke-width: 0.4; stroke-linecap: square"/>
   </g>
   <g id="line2d_150">
    <path d="M 717.987099 462.958125 
L 717.987099 262.667216 
" clip-path="url(#p77c484be21)" style="fill: none; stroke: #ff0000; stroke-width: 0.4; stroke-linecap: square"/>
   </g>
   <g id="line2d_151">
    <path d="M 728.909239 462.958125 
L 728.909239 262.667216 
" clip-path="url(#p77c484be21)" style="fill: none; stroke: #ff0000; stroke-width: 0.4; stroke-linecap: square"/>
   </g>
   <g id="line2d_152">
    <path d="M 736.190666 462.958125 
L 736.190666 262.667216 
" clip-path="url(#p77c484be21)" style="fill: none; stroke: #ff0000; stroke-width: 0.4; stroke-linecap: square"/>
   </g>
   <g id="line2d_153">
    <path d="M 747.112806 462.958125 
L 747.112806 262.667216 
" clip-path="url(#p77c484be21)" style="fill: none; stroke: #ff0000; stroke-width: 0.4; stroke-linecap: square"/>
   </g>
   <g id="line2d_154">
    <path d="M 754.394233 462.958125 
L 754.394233 262.667216 
" clip-path="url(#p77c484be21)" style="fill: none; stroke: #ff0000; stroke-width: 0.4; stroke-linecap: square"/>
   </g>
   <g id="line2d_155">
    <path d="M 761.675659 462.958125 
L 761.675659 262.667216 
" clip-path="url(#p77c484be21)" style="fill: none; stroke: #ff0000; stroke-width: 0.4; stroke-linecap: square"/>
   </g>
   <g id="line2d_156">
    <path d="M 772.597799 462.958125 
L 772.597799 262.667216 
" clip-path="url(#p77c484be21)" style="fill: none; stroke: #ff0000; stroke-width: 0.4; stroke-linecap: square"/>
   </g>
   <g id="line2d_157">
    <path d="M 779.879226 462.958125 
L 779.879226 262.667216 
" clip-path="url(#p77c484be21)" style="fill: none; stroke: #ff0000; stroke-width: 0.4; stroke-linecap: square"/>
   </g>
   <g id="line2d_158">
    <path d="M 790.801366 462.958125 
L 790.801366 262.667216 
" clip-path="url(#p77c484be21)" style="fill: none; stroke: #ff0000; stroke-width: 0.4; stroke-linecap: square"/>
   </g>
   <g id="line2d_159">
    <path d="M 798.082793 462.958125 
L 798.082793 262.667216 
" clip-path="url(#p77c484be21)" style="fill: none; stroke: #ff0000; stroke-width: 0.4; stroke-linecap: square"/>
   </g>
   <g id="line2d_160">
    <path d="M 805.364219 462.958125 
L 805.364219 262.667216 
" clip-path="url(#p77c484be21)" style="fill: none; stroke: #ff0000; stroke-width: 0.4; stroke-linecap: square"/>
   </g>
   <g id="line2d_161">
    <path d="M 812.645646 462.958125 
L 812.645646 262.667216 
" clip-path="url(#p77c484be21)" style="fill: none; stroke: #ff0000; stroke-width: 0.4; stroke-linecap: square"/>
   </g>
   <g id="line2d_162">
    <path d="M 823.567786 462.958125 
L 823.567786 262.667216 
" clip-path="url(#p77c484be21)" style="fill: none; stroke: #ff0000; stroke-width: 0.4; stroke-linecap: square"/>
   </g>
   <g id="line2d_163">
    <path d="M 830.849213 462.958125 
L 830.849213 262.667216 
" clip-path="url(#p77c484be21)" style="fill: none; stroke: #ff0000; stroke-width: 0.4; stroke-linecap: square"/>
   </g>
   <g id="line2d_164">
    <path d="M 834.489926 462.958125 
L 834.489926 262.667216 
" clip-path="url(#p77c484be21)" style="fill: none; stroke: #ff0000; stroke-width: 0.4; stroke-linecap: square"/>
   </g>
   <g id="line2d_165">
    <path d="M 841.771353 462.958125 
L 841.771353 262.667216 
" clip-path="url(#p77c484be21)" style="fill: none; stroke: #ff0000; stroke-width: 0.4; stroke-linecap: square"/>
   </g>
   <g id="line2d_166">
    <path d="M 849.05278 462.958125 
L 849.05278 262.667216 
" clip-path="url(#p77c484be21)" style="fill: none; stroke: #ff0000; stroke-width: 0.4; stroke-linecap: square"/>
   </g>
   <g id="line2d_167">
    <path d="M 856.334206 462.958125 
L 856.334206 262.667216 
" clip-path="url(#p77c484be21)" style="fill: none; stroke: #ff0000; stroke-width: 0.4; stroke-linecap: square"/>
   </g>
   <g id="line2d_168">
    <path d="M 867.256347 462.958125 
L 867.256347 262.667216 
" clip-path="url(#p77c484be21)" style="fill: none; stroke: #ff0000; stroke-width: 0.4; stroke-linecap: square"/>
   </g>
   <g id="line2d_169">
    <path d="M 874.537773 462.958125 
L 874.537773 262.667216 
" clip-path="url(#p77c484be21)" style="fill: none; stroke: #ff0000; stroke-width: 0.4; stroke-linecap: square"/>
   </g>
   <g id="line2d_170">
    <path d="M 707.060914 462.958125 
L 707.060914 262.667216 
" clip-path="url(#p77c484be21)" style="fill: none; stroke-dasharray: 9.6,2.4,1.5,2.4; stroke-dashoffset: 0; stroke: #000000; stroke-width: 1.5"/>
   </g>
   <g id="line2d_171">
    <path d="M 532.310718 300.541635 
L 535.951431 301.198346 
L 539.592145 300.443128 
L 543.232858 301.09984 
L 546.873571 299.556567 
L 550.514285 299.884923 
L 554.154998 299.523732 
L 557.795711 299.556567 
L 561.436425 300.114772 
L 565.077138 300.377457 
L 568.717852 301.526702 
L 572.358565 302.807289 
L 575.999278 301.198346 
L 579.639992 299.458061 
L 583.280705 299.622239 
L 586.921418 300.114772 
L 590.562132 301.756551 
L 594.202845 300.377457 
L 597.843558 300.705813 
L 601.484272 300.86999 
L 605.124985 300.935662 
L 608.765698 301.09984 
L 612.406412 300.640141 
L 616.047125 300.081937 
L 619.687838 301.39536 
L 623.328552 300.475964 
L 626.969265 300.804319 
L 630.609979 299.950594 
L 634.250692 300.443128 
L 637.891405 299.917759 
L 641.532119 300.902826 
L 645.172832 301.493866 
L 648.813545 305.138615 
L 652.454259 306.189354 
L 656.094972 305.762491 
L 659.735685 305.926669 
L 663.376399 308.290831 
L 667.017112 308.947542 
L 670.657825 309.472911 
L 674.298539 309.472911 
L 677.939252 309.70276 
L 681.579965 314.004221 
L 685.220679 314.004221 
L 688.861392 313.807207 
L 692.502106 316.926587 
L 696.142819 330.914543 
L 699.783532 340.73238 
L 703.424246 348.842767 
L 707.064959 377.967923 
L 710.705672 383.352958 
L 714.346386 384.699216 
L 717.987099 388.770828 
L 721.627812 401.642374 
L 725.268526 404.925931 
L 728.909239 408.110982 
L 732.549952 408.307996 
L 736.190666 409.68709 
L 739.831379 410.967677 
L 743.472092 411.000513 
L 747.112806 410.639322 
L 750.753519 410.934842 
L 754.394233 411.263198 
L 758.034946 410.770664 
L 761.675659 410.704993 
L 765.316373 409.227392 
L 768.957086 409.851268 
L 772.597799 409.358734 
L 776.238513 408.505009 
L 779.879226 407.848298 
L 783.519939 408.012476 
L 787.160653 407.881133 
L 790.801366 404.925931 
L 794.442079 398.687172 
L 798.082793 398.424487 
L 801.723506 400.427457 
L 805.364219 400.788649 
L 809.004933 395.896148 
L 812.645646 394.451383 
L 816.28636 393.203631 
L 819.927073 392.152892 
L 823.567786 377.902252 
L 827.2085 375.144064 
L 830.849213 374.487352 
L 834.489926 374.126161 
L 838.13064 369.759029 
L 841.771353 369.562016 
L 845.412066 369.496345 
L 849.05278 372.845573 
L 852.693493 389.394704 
L 856.334206 389.132019 
L 859.97492 390.01858 
L 863.615633 390.642456 
L 867.256347 395.075259 
L 870.89706 397.931954 
L 874.537773 397.73494 
L 878.178487 398.949857 
" clip-path="url(#p77c484be21)" style="fill: none; stroke: #000000; stroke-width: 1.5; stroke-linecap: square"/>
   </g>
   <g id="patch_15">
    <path d="M 515.01733 462.958125 
L 515.01733 262.667216 
" style="fill: none; stroke: #000000; stroke-width: 0.8; stroke-linejoin: miter; stroke-linecap: square"/>
   </g>
   <g id="patch_16">
    <path d="M 895.471875 462.958125 
L 895.471875 262.667216 
" style="fill: none; stroke: #000000; stroke-width: 0.8; stroke-linejoin: miter; stroke-linecap: square"/>
   </g>
   <g id="patch_17">
    <path d="M 515.01733 462.958125 
L 895.471875 462.958125 
" style="fill: none; stroke: #000000; stroke-width: 0.8; stroke-linejoin: miter; stroke-linecap: square"/>
   </g>
   <g id="patch_18">
    <path d="M 515.01733 262.667216 
L 895.471875 262.667216 
" style="fill: none; stroke: #000000; stroke-width: 0.8; stroke-linejoin: miter; stroke-linecap: square"/>
   </g>
   <g id="text_42">
    <!-- B1 -->
    <g transform="translate(605.124985 371.916803) scale(0.2 -0.2)">
     <use xlink:href="#DejaVuSans-42"/>
     <use xlink:href="#DejaVuSans-31" x="68.603516"/>
    </g>
   </g>
   <g id="text_43">
    <!-- B2 -->
    <g transform="translate(790.801366 371.916803) scale(0.2 -0.2)">
     <use xlink:href="#DejaVuSans-42"/>
     <use xlink:href="#DejaVuSans-32" x="68.603516"/>
    </g>
   </g>
   <g id="text_44">
    <!-- c -->
    <g transform="translate(532.310718 444.749861) scale(0.2 -0.2)">
     <defs>
      <path id="DejaVuSans-63" d="M 3122 3366 
L 3122 2828 
Q 2878 2963 2633 3030 
Q 2388 3097 2138 3097 
Q 1578 3097 1268 2742 
Q 959 2388 959 1747 
Q 959 1106 1268 751 
Q 1578 397 2138 397 
Q 2388 397 2633 464 
Q 2878 531 3122 666 
L 3122 134 
Q 2881 22 2623 -34 
Q 2366 -91 2075 -91 
Q 1284 -91 818 406 
Q 353 903 353 1747 
Q 353 2603 823 3093 
Q 1294 3584 2113 3584 
Q 2378 3584 2631 3529 
Q 2884 3475 3122 3366 
z
" transform="scale(0.015625)"/>
     </defs>
     <use xlink:href="#DejaVuSans-63"/>
    </g>
   </g>
   <g id="text_45">
    <!-- B: 28.01.2023 12:00 - 29.01.2023 12:00 -->
    <g transform="translate(584.117727 256.667216) scale(0.12 -0.12)">
     <use xlink:href="#DejaVuSans-42"/>
     <use xlink:href="#DejaVuSans-3a" x="68.603516"/>
     <use xlink:href="#DejaVuSans-20" x="102.294922"/>
     <use xlink:href="#DejaVuSans-32" x="134.082031"/>
     <use xlink:href="#DejaVuSans-38" x="197.705078"/>
     <use xlink:href="#DejaVuSans-2e" x="261.328125"/>
     <use xlink:href="#DejaVuSans-30" x="293.115234"/>
     <use xlink:href="#DejaVuSans-31" x="356.738281"/>
     <use xlink:href="#DejaVuSans-2e" x="420.361328"/>
     <use xlink:href="#DejaVuSans-32" x="452.148438"/>
     <use xlink:href="#DejaVuSans-30" x="515.771484"/>
     <use xlink:href="#DejaVuSans-32" x="579.394531"/>
     <use xlink:href="#DejaVuSans-33" x="643.017578"/>
     <use xlink:href="#DejaVuSans-20" x="706.640625"/>
     <use xlink:href="#DejaVuSans-31" x="738.427734"/>
     <use xlink:href="#DejaVuSans-32" x="802.050781"/>
     <use xlink:href="#DejaVuSans-3a" x="865.673828"/>
     <use xlink:href="#DejaVuSans-30" x="899.365234"/>
     <use xlink:href="#DejaVuSans-30" x="962.988281"/>
     <use xlink:href="#DejaVuSans-20" x="1026.611328"/>
     <use xlink:href="#DejaVuSans-2d" x="1058.398438"/>
     <use xlink:href="#DejaVuSans-20" x="1094.482422"/>
     <use xlink:href="#DejaVuSans-32" x="1126.269531"/>
     <use xlink:href="#DejaVuSans-39" x="1189.892578"/>
     <use xlink:href="#DejaVuSans-2e" x="1253.515625"/>
     <use xlink:href="#DejaVuSans-30" x="1285.302734"/>
     <use xlink:href="#DejaVuSans-31" x="1348.925781"/>
     <use xlink:href="#DejaVuSans-2e" x="1412.548828"/>
     <use xlink:href="#DejaVuSans-32" x="1444.335938"/>
     <use xlink:href="#DejaVuSans-30" x="1507.958984"/>
     <use xlink:href="#DejaVuSans-32" x="1571.582031"/>
     <use xlink:href="#DejaVuSans-33" x="1635.205078"/>
     <use xlink:href="#DejaVuSans-20" x="1698.828125"/>
     <use xlink:href="#DejaVuSans-31" x="1730.615234"/>
     <use xlink:href="#DejaVuSans-32" x="1794.238281"/>
     <use xlink:href="#DejaVuSans-3a" x="1857.861328"/>
     <use xlink:href="#DejaVuSans-30" x="1891.552734"/>
     <use xlink:href="#DejaVuSans-30" x="1955.175781"/>
    </g>
   </g>
  </g>
 </g>
 <defs>
  <clipPath id="pc26c94948d">
   <rect x="58.471875" y="22.318125" width="380.454545" height="440.64"/>
  </clipPath>
  <clipPath id="p8d8949918d">
   <rect x="515.01733" y="22.318125" width="380.454545" height="200.290909"/>
  </clipPath>
  <clipPath id="p77c484be21">
   <rect x="515.01733" y="262.667216" width="380.454545" height="200.290909"/>
  </clipPath>
 </defs>
</svg>
